/* XPM */
static char *_339f1acd8df40d3bc4ceafd4e1a0b99[] = {
/* columns rows colors chars-per-pixel */
"16 16 2 1 ",
"  c None",
". c black",
/* pixels */
"       ..       ",
"       ..       ",
"       ..       ",
"       ..       ",
"       ..       ",
"       ..       ",
"                ",
"......    ......",
"......    ......",
"                ",
"       ..       ",
"       ..       ",
"       ..       ",
"       ..       ",
"       ..       ",
"       ..       "
};
