/* XPM */
static char *_599611646468[] = {
/* columns rows colors chars-per-pixel */
"64 64 227 2 ",
"   c #34271F",
".  c #35281F",
"X  c #352821",
"o  c #3A2D25",
"O  c #352B2C",
"+  c #382D29",
"@  c #3D3027",
"#  c #3E3129",
"$  c #352E35",
"%  c #382F32",
"&  c #352F39",
"*  c #35313E",
"=  c #3F3E3D",
"-  c #42352C",
";  c #46382F",
":  c #483A2F",
">  c #463931",
",  c #453A37",
"<  c #4A3D33",
"1  c #413E3D",
"2  c #314E32",
"3  c #2D5536",
"4  c #395A39",
"5  c #434432",
"6  c #4D4036",
"7  c #4E423A",
"8  c #514237",
"9  c #52453A",
"0  c #56493D",
"q  c #584A3E",
"w  c #4F533A",
"e  c #476239",
"r  c #57603F",
"t  c #353243",
"y  c #35334A",
"u  c #343653",
"i  c #383D57",
"p  c #353A5D",
"a  c #343B63",
"s  c #343E6E",
"d  c #383F6A",
"f  c #343E70",
"g  c #423F45",
"h  c #3A465A",
"j  c #3A4767",
"k  c #3F5367",
"l  c #334373",
"z  c #374A77",
"x  c #3B5479",
"c  c #444242",
"v  c #494645",
"b  c #4D4A49",
"n  c #5B4D42",
"m  c #584C45",
"M  c #514E4C",
"N  c #4D5D43",
"B  c #5F5144",
"V  c #54544B",
"C  c #5B524C",
"Z  c #474C55",
"A  c #564E52",
"S  c #4A525A",
"D  c #545353",
"F  c #595657",
"G  c #5D5A56",
"H  c #5D5B58",
"J  c #615246",
"K  c #655649",
"L  c #685749",
"P  c #67594B",
"I  c #6A5B4D",
"U  c #705F4F",
"Y  c #635C55",
"T  c #6E5E51",
"R  c #615E5C",
"E  c #705F51",
"W  c #526442",
"Q  c #54634A",
"!  c #5A6748",
"~  c #62644D",
"^  c #646B4A",
"/  c #6B714E",
"(  c #666755",
")  c #6B645B",
"_  c #736354",
"`  c #786757",
"'  c #736D54",
"]  c #766A59",
"[  c #7C6B5A",
"{  c #6E7252",
"}  c #747255",
"|  c #797257",
" . c #767558",
".. c #7C735A",
"X. c #434A65",
"o. c #495969",
"O. c #575D67",
"+. c #404E79",
"@. c #475A74",
"#. c #516775",
"$. c #556676",
"%. c #696662",
"&. c #6D6A65",
"*. c #6B6868",
"=. c #736D64",
"-. c #766E66",
";. c #7B7267",
":. c #75726A",
">. c #7A756D",
",. c #6C7477",
"<. c #7E7A71",
"1. c #787876",
"2. c #816E5D",
"3. c #84725E",
"4. c #817A5E",
"5. c #857361",
"6. c #897662",
"7. c #857D62",
"8. c #8D7964",
"9. c #847A6D",
"0. c #8D7B69",
"q. c #907C67",
"w. c #927E6A",
"e. c #827D72",
"r. c #8F8169",
"t. c #96816D",
"y. c #98836F",
"u. c #898075",
"i. c #978470",
"p. c #9A8671",
"a. c #9E8975",
"s. c #9F8B78",
"d. c #A08B77",
"f. c #A28D79",
"g. c #354B82",
"h. c #324F8B",
"j. c #2F518C",
"k. c #385787",
"l. c #2D5395",
"z. c #2A559A",
"x. c #345A95",
"c. c #3C648D",
"v. c #38649A",
"b. c #3D7295",
"n. c #2F60A3",
"m. c #386BA6",
"M. c #3B75A9",
"N. c #3875B1",
"B. c #3C7BB3",
"V. c #3B7DB8",
"C. c #475B85",
"Z. c #456986",
"A. c #566D85",
"S. c #4B748D",
"D. c #577382",
"F. c #416C97",
"G. c #477698",
"H. c #577898",
"J. c #6F7D86",
"K. c #637B96",
"L. c #4578A4",
"P. c #4574AB",
"I. c #3D80AC",
"U. c #3C84B4",
"Y. c #3784BC",
"T. c #3B83BC",
"R. c #3D8ABD",
"E. c #5F8A9D",
"W. c #78838B",
"Q. c #618796",
"!. c #788893",
"~. c #4787A8",
"^. c #5885AA",
"/. c #4688BC",
"(. c #5B88B5",
"). c #4D96B9",
"_. c #6686A4",
"`. c #6890A8",
"'. c #658BB7",
"]. c #6B94B3",
"[. c #7694BB",
"{. c #78A4BA",
"}. c #368CC4",
"|. c #3889C1",
" X c #3A95C7",
".X c #3C94C6",
"XX c #3491C8",
"oX c #438EC0",
"OX c #4E8DC0",
"+X c #518FC0",
"@X c #4395C3",
"#X c #459CC6",
"$X c #4A98C7",
"%X c #599AC6",
"&X c #689CC9",
"*X c #4CA3C7",
"=X c #55A5CB",
"-X c #5DAACD",
";X c #5BA9D1",
":X c #67A6CB",
">X c #79AAC9",
",X c #6CB1CE",
"<X c #63ADD1",
"1X c #6DAAD3",
"2X c #78A9D3",
"3X c #65B0D1",
"4X c #6CB2D2",
"5X c #78B5D5",
"6X c #7CB9D6",
"7X c #8A9AA2",
"8X c #879DAF",
"9X c #809FC6",
"0X c #8BAEC7",
"qX c #89ACD4",
"wX c #88B7D5",
"eX c #82BBD7",
"rX c #84BDD8",
"tX c #8ABED9",
"yX c #93BDD3",
"uX c #8EBBE3",
"iX c #95BDE4",
"pX c #93C3DB",
"aX c #99C7DE",
"sX c #9CC9DF",
"dX c #9BC2E7",
"fX c #9ECBE0",
"gX c #A0CCE1",
/* pixels */
"V.V.V.V.V.V.V.V.V.V.V.V.V.V.V.V.V.V.V.V.V.V.V.V.V.V.V.V.V.V.V.V.V.V.V.V.V.V.V.V.V.V.V.V.V.V.V.V.V.V.V.V.V.V.V.V.V.V.V.V.V.V.V.V.",
"V.V.V.V.V.V.V.V.V.V.V.V.V.V.V.V.V.V.V.V.V.V.V.V.V.V.V.V.V.V.V.V.V.V.V.V.V.B.V.V.V.V.V.V.V.V.V.V.V.V.V.V.V.V.V.V.V.V.V.V.V.V.V.V.",
"V.V.V.V.V.V.V.V.V.V.V.V.V.V.V.V.V.V.V.V.V.V.V.V.V.V.V.V.V.V.V.V.V.V.V.V.V.V.V.V.V.V.V.V.V.V.V.V.V.V.V.V.V.V.V.V.V.V.V.V.V.V.V.V.",
"V.V.V.V.V.V.V.V.V.V.V.V.V.|.@XoXT.V.V.V.V.V.V.V.V.V.V.V.V.V.V.V.V.V.V.V.V.V.V.V.V.V.V.V.V.V.V.V.V.V.V.V.V.V.V.V.V.V.V.V.V.V.V.V.",
"V.V.V.V.V.V.V.V.V.T.V.V.|.XX X#X}.@X|.V.V.V.V.V.V.V.V.V.V.V.V.V.V.V.V.V.V.V.V.V.V.V.V.V.V.V.V.V.V./.@XR.T.T.V.V.V.V.V.V.V.V.V.V.",
"V.V.V.V.V.V.V.|.}.XX}.}.}.V.XX X#X#X$X#X|.V.V.V.V.V.V.V.V.V./.+X%XOX/./.V.V.V.V.V.V.V.V.V.V.V.T.|.oX*X*X.XXXY.T.V.V.V.V.V.V.V.V.",
"M.N.T.V.V.V.|.XX}.T.|.oX&X:X@X|. XXX#X.X.X|.V.V.V.V.V.V.V.B.%XwXtXeXeX2X2X:X/.V.V.V.V.V.V.V.V.oX$X$X@X X.XXXXXY.T.R.V.V.Y.T.V.L.",
"i j M.T.Y.Y.}. X1X&X&XtXgXgXeXOX|.V.}.XXXX X}.V.V.V.V.V./.2XrXtXtXtXtXrX5X4X<XoXT.V.V.V.V.V.|. X<X2XH.M.I.U.U.R.@X#X.X}.}.P.J.;.",
"O y z P.<X$X$X1X2X'.>XfXfXgXfXtX%X/.T.Y.T.}.XX|.V.V.V./.-XtXtXtXeXeXeX6X3X4X3X=X=X).R.U.oXoX@X1XdXdX[.L.L.M.F.C.c.b.I.Y.b.D U q ",
"X y d g _.>X2X2X2X(.G.>XyXgXgXpXpX,X-X%X/.|.XX X}.%X:X%X4X6XeX6X4X4X<X-X*X=X3XrX3X3X*XR. X@X;XuXdXdXqXK.@.z k.k.g.g.z X.6 q 9 6 ",
"X * s a p C.'.2X&XH.F.Z.'.yXgXfXsXpX>X{.H.m.$X1X;X6XtXrX6X<X5X4X-X*X*X-X,X,XpXsXpXrXeX-X%X<XiXdXwXiX].o.h j l +.X.Z , < : 6 U U ",
"- & p s a d C.'.'.Z.C.g.l.F.qXpXpXpXpXyXW.k.N.OX1XeXeXrXrX6XrXeX,X-X4XtXgXsXsXpXpXpXpXrXqXiXdX9X9XqX^.k h h O.9.[ n < < : I 8.` ",
"; + t u s s s l X.h z h.j.l.n.(.wXsXsXgX0XK.(.m.P.%X4XtXyX0X!.'.5XpXsXgXgXgXpXpX9X>X>X8X8XqXqXK.K.>XA.@.k S e.f.y.K J K K ` [ 8 ",
"> > + X u s f s a a p l l.z.z.z.m.0XsXpXaXpXaXwX+XP.'.8X!.W.J.Z.v./.:XwXaXyX0X7XW.D.J.<.1.>X&X&XA.A.@.Z F 0.d.d.3.q 2.I J 3.J o ",
"< < ; X O y a f s f a u l z.z.l.z.v.].wXpXpXpXrX5XeX{.W.1.@.@.#.@.c.V.%X5X].!.7Xe.<.9.e.,.K.K.K.$.Z A T ` y.a.q.3.[ I 9 J I - - ",
"L q - o X X t a f s s p a a f g.h.g.m.*X:X6XpX,X^.Q.,.<.=.j g.z j o.L.-X:XE.,.<.1.e.>.>.=.O.$.A.S A 0.5.B 6.p.y.a.t.J 9 9 ; @ < ",
"T L - o     & y f f f s a a y a f g.k.F.A.:X-X^.E.,.=.>.R Z z k.x.k.k.S.J.1.%.&.:.:.&.&.H M b M A -.y.6.B 0.d.d.d.q.T < > # < < ",
"I E n ; - X O $ u a s f f a u a f l j Z @.b.G.G.=X:X,.S o.S.b.N.m.k.@.*. .R H H O.H H D #.Z.o.S [ y.q.3.q.f.p.p.i.E 9 9 ; - < - ",
"m I I n < o   X X t a f f f f a f d d l.V.b.o.b.#X).S.c.~.*X/.R.b.#.#.F F O.O.#.O.D Z o.G.U.Z.,.8.8.8.3.y.d.p.p.` 0 9 K n < > o ",
"< 0 I I K - + X O O a f f f f s f f f h.n.N.R.U.U.c.c.P.R./.@X/.=X4X3X`.`.E.=X*XU.#.#.L.G.D.:.` 2.6.i.w.w.d.q.2.0 n E I 9 < < - ",
"U L B I J - o % y & $ p s s s s f f f l z m.V.n.@.G , * p x F.(.%X:X<X;X;X;X#X XR.R.~.Z.$.6.2.` I 0.i.0.q.w.I < n E E K 9 < < - ",
"B 2.2.L n > - X & y & $ u a d s f f f l x.N.v.$._ ` q 8 # & p d j x k.b.N.U.I.S.Z.#.S C E E J n T 5.w.p.2.K > n I T I I n < < < ",
"9 ` 8.2.B < > - O $ & & u p p a a s a l l.C.*.2.5._ B n , + & y u u y y u i O.5.C 9 K _ I < 8 T 6.p.d.w.[ < > n K T Y n 9 9 < 8 ",
"L L 5.6.5.J < > o   & O t s a a p u y g A Y [ 6._ 9 n P 6 X % & * t t $ , _ s.y._ n ~ B 9 9 E 8.d.d.6.6.I o o q T E K n B B 9 < ",
"E I E 6.6.2.B ; -   X o t s s s p g A E E 2.q.w.E n J K ; - ; X O * $ > 6.a.i.6.[ T K < m T 5.w.p.q.6.2.8 > B E E [ 2.E ` B < < ",
"E E E 2.6.6.` 0 - o o - % u d X.F I E 5.5.w.w.q.I n L < o > o X X X > 6.a.p.5.5._ L < 9 T ` 8.q.8.3.3.K 8 K E E [ 3.8.6.6.< < < ",
"2.E K I _ 2.2.E n ; o o X : Y ` 2.2.6.q.8.q.w.E < n n < # # # X : K 8.p.6.3.[ ` I < m _ 2.3.8.` n E I B J E E E 2.6.8.6.I 0 I - ",
"6.2.K m K K K J K n o   < 2.6.6.w.w.q.8.6.q.2.0 n I I < < > < I 0.5.6.3.0.i._ J 8 K 0.w.2.6.2.U n 9 K m T _ U 2.8.0.8.2.L L n X ",
"8.8.` 8 B E J n < < # 8 3.6.2.q.p.w.5.E -.E E E E T n 6 7 J 6.a.w.5.[ 0.w.w.I n _ a.p.6.3.q.` 2.J q B L 3.` 2.8.8.8.3.2.U J : + ",
"6.6.5.L 9 K I q < 8 I E 2.[ 6.q.6.5.5.2.n n E 5.E I 9 9 ` q.w.0.-.2.w.d.w.T n _ p.w.w.0.w.I L T 8 < n 2.2.2.8.3.6.5.K n n < -   ",
"` 3.3.E T ) M m _ 6.6.` ` 6.8.6.[ 5.d.6.< < E E L m 9 [ d.p.0._ E 8.s.a.0._ _ [ 6.5.5.3.K I T n < < B I _ 3.[ 2.6.T J 8 < >   - ",
";.-._ -.1.%.c m [ 6.2.q.y.8.6.6.0.d.d.E < I E E J I ' r.8.w.6.B R -.) 6.w.s.w.` ` E L < < J n 9 0 B E _ 3.6.2.2.I I _ < m 9 < -.",
"<.>.&.H F M g 1 v _ y.f.p.0.q.y.d.t.q.[ _ W w r W | 8.6.6.p.3.n n C b T 0.q.E ` [ 6.P J m < n I I ` 5.8.w.8.E T L 2._ n %.H :.<.",
"u.:.H H H v = g K 5.w.p.p.p.q.y.y.t.q.q.8.| ~ ^ [ 2.6.6.8.q.L q J [ 0.8.5.E 2.w.a.p.5.n 8 n ` 6.8.w.8.[ 6.` ` ` E _ J G M M :.:.",
">.:.:.<.=.b 1 = C [ 3.6.w.w.q.y.y.p.y.y.y.q.q.6.q.q.q.q.8.6.3.3.6.8.8.0.6.5.6.0.w.q.3.I I [ w.p.f.f.0.-.[ 2.0.0.;.<.>.*.H M M H ",
"( >.<.&.b c g v C [ 8.y.d.f.d.p.y.y.t.t.q.q.w.y.y.w.p.w.w.q.w.y.q.q.w.w.w.p.w.p.y.y.q.8.6.q.i.f.f.p.5.E ;.i.w.e.e.e.<.<.*.D v c ",
":.%.%.M v M b E 2.0.d.d.f.d.a.d.d.d.a.p.y.w.t.t.p.p.d.d.p.p.p.w.w.w.p.w.w.w.w.w.t.t.8.8.q.y.p.f.f.w.6.8.w.e.e.e.>.=.&.H v h > = ",
":.%.v v M C E 8.i.w.w.w.p.a.p.d.f.f.f.f.f.d.d.y.f.f.d.f.d.p.d.w.w.w.w.w.w.w.w.d.y.y.q.8.8.q.a.p.y.q.q.9.e.e.<.<.1.D v v F M 1 = ",
"6.[ ' ] _ 8.w.i.i.y.w.p.f.f.f.f.f.f.f.f.f.f.f.d.d.f.f.f.f.d.y.d.f.w.w.w.w.w.d.d.p.y.t.t.q.8.8.8.8.8.6.] =.:.>.%.F D Y %.A g 2 g ",
"8.8.0.6.q.d.f.f.f.d.p.d.f.f.f.f.f.f.f.f.f.f.f.f.f.f.f.f.p.p.d.f.f.f.w.p.d.w.q.w.q.t.p.d.a.t.7.8.8.q.q.8._ Y Y M v C >.R b g J E ",
"8.8.q.q.6.q.w.p.f.f.f.f.f.f.f.f.f.f.f.f.f.f.f.f.f.f.f.f.f.f.d.d.f.d.f.d.d.p.p.d.d.t.t.t.r./ ' 8.t.t.t.y.q.6.6.6.3.5.3.[ ) _ 2.8.",
"0.q.w.w.y.d.f.f.f.f.f.f.f.f.f.f.f.f.f.f.f.f.f.f.f.f.f.f.f.f.f.f.f.d.f.f.f.f.d.f.d.p.y.y.a.p.y.t.y.y.p.p.i.y.y.t.q.8.8.8.6.8.8.9.",
"w.y.y.w.d.f.f.f.f.f.f.f.f.f.f.f.f.f.f.f.f.f.f.f.f.f.f.f.f.f.f.f.f.f.f.f.f.f.f.f.f.f.d.d.f.f.f.d.f.d.d.y.y.w.w.q.8.8.8.8.9.e.<.>.",
"i.p.w.q.q.y.d.d.f.f.f.f.f.f.f.f.f.f.f.d.d.d.d.f.f.f.f.f.f.f.f.f.f.f.f.f.f.f.f.f.f.f.f.f.f.f.f.f.d.d.p.w.6.q.8.q.8.8.8.8.;.:.:.( ",
"y.y.y.d.d.d.d.d.f.f.f.f.f.f.f.f.f.f.f.f.d.a.d.d.f.f.f.f.f.f.f.f.f.f.f.f.f.f.f.f.f.f.f.f.f.f.d.f.d.d.y.q.8.8.8.q.q.q.8.8.6.;._ m ",
"d.d.d.f.d.d.f.d.f.f.f.f.f.f.f.f.f.f.f.f.f.f.f.f.f.f.f.f.f.f.f.f.f.f.f.f.f.d.f.f.f.f.d.f.f.f.d.y.y.p.p.w.q.w.w.w.q.w.w.q.0.6.5.2.",
"y.p.p.p.y.d.d.f.f.f.f.f.f.f.f.f.f.f.f.f.f.f.f.f.f.f.f.f.f.f.f.f.f.f.f.i.7. .4.a.f.d.p.y.p.d.y.t.w.p.d.p.w.y.y.y.y.y.p.i.q.8.8.8.",
"y.t.y.d.d.f.f.f.f.f.f.f.f.f.f.f.f.f.f.f.f.f.f.f.f.f.f.f.f.f.f.f.f.f.f.p.y.y.r.p.d.d.f.d.y.y.y.t.t.y.y.y.y.y.y.y.p.w.w.q.8.8.8.8.",
"8. .7.f.f.f.d.d.d.f.f.f.f.f.f.f.d.d.d.d.f.f.f.f.f.f.f.f.f.f.f.f.f.f.f.d.d.d.y.y.q.q.t.q.8.t.p.a.d.d.p.y.t.t.7.t.r.q.q.8.6.8.8.8.",
"( Q ^ r.w.y.y.y.p.f.f.f.f.f.f.p.d.d.a.d.d.d.f.f.f.f.f.f.f.f.f.f.f.f.d.d.d.p.y.w.t.t.q.q.8.8.y.p.d.p.p.y. . ...| ^ { 3.6.8.8.q.3.",
"9 m N ! 4.q.y.q.y.d.f.f.d.d.d.p.p.y.y.p.p.d.d.f.f.f.f.f.f.f.f.f.f.f.d.d.d.y.y.p.p.d.d.a.8.t.t.t.t.y.d.y.| ~ | ~ ( / 2.3.6.8.2.n ",
"q I G w ! 5.8.0.w.d.d.d.f.f.f.f.f.d.d.y.w.d.f.d.f.f.f.f.f.f.f.f.d.p.d.f.f.p.t.p.d.d.p.t.8.8.p.a.p.t.t.t.q.6.8.6.q.q.3.8.L : 8 < ",
"0 I T I T E 2.8.t.f.f.d.y.y.p.d.d.p.p.w.q.w.t.d.d.f.f.f.f.f.d.p.t.d.d.d.d.p.y.t.t.q.q.8.8.8.p.p.y.w.8.8.8.8.8.8.4...3.` 8 . o - ",
"7 B J I T T E 2.t.p.y.p.w.q.q.w.w.q.q.8.3.q.w.y.d.p.p.d.d.d.d.d.y.q.t.w.t.d.d.d.p.t.8.8.8.8.8.8.3.q.8.8.8.8.8.8.^ r ' E q - . . ",
"@ ; : 5 0 B I _ 6.w.w.q.q.w.y.y.y.t.t.y.y.w.w.t.t.y.d.d.p.t.t.y.y.w.8.8.8.q.t.y.y.y.t.q.8.8.8.8.q.8.8.8.8.6.4.| e e E I J 0 o . ",
". . # # ; n n K E 2.3.q.6.q.w.y.y.y.y.y.y.y.w.w.w.p.d.d.y.3.4.4.3...| 3.w.w.w.y.y.y.y.y.8.8.8.8.8.3.] Y R ' ~ W 3 V U L B - . . ",
"X     X o 9 I K I E _ [ 8.8.q.y.y.t.w.t.w.w.q.8.8.y.d.f.r.^ e e ^ ^ ! | t.t.t.8.r.t.t.r.0.8.8.8.=.M = # 1 D , = b I B 7 - . . X ",
"X X X   X - K T I K T E ` [ 8.w.t.y.q.8.8.q.8.w.y.y.p.r.^ 4 2 4 N / 5.7.{ { / ! ^ / } ^ ] 8.8.) F # X . . X X 7 J I 0 < < @ . X ",
". X X X X X < n K K J T T n K [ 8.8.8.8.8.8.8.q.8.8.3.[ { r r ~ ..3...| r h 3 3 3 4 ~ ' ..;.] D + . . . . o > 9 P J 7 6 - X X X ",
"X   X X X X X # > 8 < n E I J 0 n I ..8.8.8.8.6.8.8.8.8.5...3.8.6.[ W r / Q ~ Q V ( 2.3.;.) H , # # @ . @ : 6 6 6 # 6 ; X . X . ",
"X X   X   X     X ; o # J E E I 9 q _ _ ]  .5.8.8.8.8.8.q.8.8.6.' ! ~ ! e / 3.3.5.E L K K m 7 < > # # : 6 6 6 < o X # X X X X X ",
". X X . X X X X o > # X - n K P 0 : n J B N N ' ..8.8.8.6.q.8.6.4...3.| { 4.3.` q o X o - - ; @ X # : 5 6 < < # X X X X X X X . ",
". X X   X   X X X > < - # < 0 n J 7 @ ; > 6 2 v ~ | / 4.q.6.8.3.3.3.3.[ I I I B 8 - . X   . X   @ ; - : : - # X X X X     X X . ",
"X   X X X   X X X # < - X o o - 9 9 > o X o o o 5 N e 3.3._ L U _ ` P n I I 8 B 9 X X . X .   o - X X o X X X X . X . X X X   X "
};
