/* XPM */
static char *_5588_27ec2e6489c730669a9b0064fa981523688704753d2b000f3c90b54c7f497e45[] = {
/* columns rows colors chars-per-pixel */
"64 64 248 2 ",
"   c #0C0B00",
".  c #1B1B02",
"X  c #1C1B0C",
"o  c #161506",
"O  c #1C1C13",
"+  c #1C1B19",
"@  c #100F07",
"#  c #201E0B",
"$  c #221E17",
"%  c #1E2218",
"&  c #1D200F",
"*  c #23230D",
"=  c #28280A",
"-  c #232314",
";  c #2C2B14",
":  c #24231B",
">  c #29261B",
",  c #2B2B1C",
"<  c #282718",
"1  c #312E1B",
"2  c #342D16",
"3  c #2D311C",
"4  c #33321C",
"5  c #3A351C",
"6  c #383718",
"7  c #322B0D",
"8  c #252422",
"9  c #292623",
"0  c #262922",
"q  c #2C2B24",
"w  c #2C2C2B",
"e  c #29272B",
"r  c #312D24",
"t  c #322E2B",
"y  c #2C3228",
"u  c #333324",
"i  c #3B3B24",
"p  c #34342B",
"a  c #39352C",
"s  c #3B3B2C",
"d  c #373827",
"f  c #312F33",
"g  c #2C353C",
"h  c #2C3637",
"j  c #343433",
"k  c #343A34",
"l  c #3C3C33",
"z  c #343C3E",
"x  c #3C3C39",
"c  c #383537",
"v  c #292C33",
"b  c #202022",
"n  c #453E1C",
"m  c #423C2C",
"M  c #433D23",
"N  c #423E35",
"B  c #3E422B",
"V  c #3C4235",
"C  c #3C423B",
"Z  c #45441C",
"A  c #44432B",
"S  c #4B452B",
"D  c #4C4A2C",
"F  c #464525",
"G  c #56552C",
"H  c #444333",
"J  c #4A4533",
"K  c #4C4B35",
"L  c #44443B",
"P  c #4B4B3C",
"I  c #464939",
"U  c #524D33",
"Y  c #534D3A",
"T  c #4C513A",
"R  c #545334",
"E  c #54533B",
"W  c #5B553C",
"Q  c #5C5B3C",
"!  c #5B5835",
"~  c #504F28",
"^  c #635B39",
"/  c #635C2E",
"(  c #5E6138",
")  c #63623C",
"_  c #6A653B",
"`  c #726A3D",
"'  c #77723E",
"]  c #2C3643",
"[  c #2E3944",
"{  c #2C3848",
"}  c #333C44",
"|  c #343C4B",
" . c #373A46",
".. c #383D51",
"X. c #3B434C",
"o. c #394445",
"O. c #3C4452",
"+. c #444441",
"@. c #4C4B44",
"#. c #444B48",
"$. c #524E45",
"%. c #4C544B",
"&. c #4A5448",
"*. c #545443",
"=. c #5B5A42",
"-. c #5C5C4B",
";. c #555748",
":. c #444C53",
">. c #434956",
",. c #4A5554",
"<. c #535B53",
"1. c #595955",
"2. c #625C43",
"3. c #655E4A",
"4. c #625C5A",
"5. c #5C624B",
"6. c #5C6454",
"7. c #596558",
"8. c #5F715B",
"9. c #646345",
"0. c #6B6543",
"q. c #6B6A45",
"w. c #65644B",
"e. c #6A644C",
"r. c #6B6C4C",
"t. c #736C4C",
"y. c #746B46",
"u. c #7B744C",
"i. c #777448",
"p. c #636353",
"a. c #6C6B54",
"s. c #626B5C",
"d. c #6C6C5B",
"f. c #686657",
"g. c #746D56",
"h. c #697258",
"j. c #7C7453",
"k. c #737A5B",
"l. c #7A7B5B",
"z. c #777557",
"x. c #6C714B",
"c. c #5D6962",
"v. c #676A63",
"b. c #6B7565",
"n. c #767966",
"m. c #747972",
"M. c #5A5E62",
"N. c #82794C",
"B. c #837C54",
"V. c #81795A",
"C. c #837C66",
"Z. c #7E8159",
"A. c #7F824D",
"S. c #798368",
"D. c #7C8576",
"F. c #8A865C",
"G. c #8C8B5C",
"H. c #868557",
"J. c #94935C",
"K. c #98985C",
"L. c #8E8E59",
"P. c #848463",
"I. c #8D8C64",
"U. c #888868",
"Y. c #928E67",
"T. c #949363",
"R. c #9B9B65",
"E. c #93946B",
"W. c #9C9C6C",
"Q. c #979868",
"!. c #898973",
"~. c #948E74",
"^. c #8D9678",
"/. c #9B9C75",
"(. c #9D9C7B",
"). c #969675",
"_. c #8D9164",
"`. c #A29E76",
"'. c #A19D6C",
"]. c #9DA26A",
"[. c #9CA274",
"{. c #9DA57B",
"}. c #A5A66A",
"|. c #A3A474",
" X c #ABAB74",
".X c #A3A47C",
"XX c #A5AB7B",
"oX c #ACAD7C",
"OX c #A8A777",
"+X c #B1AC76",
"@X c #B3B37D",
"#X c #B7B879",
"$X c #ADB274",
"%X c #9FA15C",
"&X c #C0BC7D",
"*X c #BAC27C",
"=X c #C2C47D",
"-X c #7F8884",
";X c #999B82",
":X c #8A9683",
">X c #9CA588",
",X c #9CA998",
"<X c #A4AA82",
"1X c #ACAD84",
"2X c #A6A787",
"3X c #AEB284",
"4X c #ACB38A",
"5X c #B4B484",
"6X c #BABB83",
"7X c #B3B48C",
"8X c #BCBC8B",
"9X c #B6B987",
"0X c #ACB696",
"qX c #BCBC94",
"wX c #B7B895",
"eX c #AFAD8D",
"rX c #B0B9A9",
"tX c #C0BE90",
"yX c #BEC38A",
"uX c #BDC293",
"iX c #BCC39A",
"pX c #BCC7AB",
"aX c #C3C58C",
"sX c #C6C887",
"dX c #D3D48B",
"fX c #C3C492",
"gX c #C2C39C",
"hX c #CACC9B",
"jX c #C8CB96",
"kX c #CCD299",
"lX c #D3D593",
"zX c #D3D49C",
"xX c #DBDD9B",
"cX c #D9DB96",
"vX c #CED08D",
"bX c #DDE19A",
"nX c #E1E49B",
"mX c #CBCCA3",
"MX c #C4C9A5",
"NX c #CBD2A7",
"BX c #D6D9A6",
"VX c #D8DAB3",
"CX c #CDD1AF",
"ZX c #DDE2A5",
"AX c #E5E7A6",
"SX c #E7E8B5",
"DX c #EFF4AF",
"FX c #EAECC2",
/* pixels */
"{ ] z h h z [ { { { { { ] ] { ] ] } g g { { ] ] ] ] { ] ] g [ ] { { [ ] ] { ] { { { { ] ] ] { { ] { [ { [ g ] [ { { { ] ] ] ] g ",
"| ] ] } g g { [ { { [ [ g [ { o.g } } } g [ ] { { { { ] [ ] g [ [ { ] [ o.g ] { [ { { { { | | ] { { ] ] [ } }  .} ] ] [ o.{ g { ",
"| | } ] { X.| { { { ] X.h z g h } h h o.z [ o.o.| ..{ { ] O.o.o.o.] [ g [ ] O.] | [ } [ [ ] ] ..| | |  .[ g h v z o.[ o.] o.[ [ ",
"|  . .....{ { | X.o.[ k +.#.<.M.m.v.#.y V y y h h g | X.g v v h h o.[ o.o.[ ] o.} [ } X. .X.} } ] } h j C %.<.<.#.h v z g { o.o.",
"| } [ o.{ X.O.{ [ C s I S.h.k.S.6.-.6.;.8.S.S.S.n.s.k u 6.S.S.S.I h  .| | ..| X.} X.X.| } | [ C :.%.&.h.4XpXiX0X0X:Xb.7.o.o.{ { ",
"} z o.o.o.{ O.X.X.C B r.( ! Q a.h.R A {.NXNXuX>X2XMX>X^.CXNX>X0X0X*.C } | [ c o.k k h z } o.X.,.b.:X,X0XpX0X[.>X,XCXpXrX-XM.} X.",
";X5.y V o.o.{ X.C h I n.=.g.=.w.5.9.= [.ZXXXQ.{.<X<X7XqX4X[.[.{.wXiX>X>X>X,X6.V m.D.S.D.6.V k C o.z h &.n.D.S.m.D.m.&.#.C C +.,.",
"pXpXpX,X-Xc.O.X.1.b.^.n.2.^ Y z.( 5.~ Z.uXiXuX3X{.[.[.[.^.[.[.[.[.E.XXXX<XiXpXeXNXiX{.iXpX0XD.#.o.o.X.o.C [ } o.o.C o.o.o.+.d.6.",
"n.D.n.<.M.,.>.>.M.v.n.e.g.0.m g.g.D D z.2X).(.(.[.{.[.[.{.[.{.{.XX*XyXyXyX{.{.{.{.Q.[.yXMXCXpX,X-Xb.<.o.,.:.X.,.O.O.o.,.o.8.T V ",
"V C C #.X.>.>.>.X.o.*.n.3.e.2 M 5 W 5 E 2XMXqXeX3XXXXX$XXX$X{.{.].iXNXkXZXBXkX@X[.*XuX<Xk.B I %.,.,.O.O.X.:.,.O.O.,.,.o.&.&.5.B ",
"5.6.s.m.1.:.:.,.,.%.-.z.3.V.W M M n.*.K $.;XCX0X{.XX$X3XyXuXpXiXpXpX>XZ.k.^.iXNXiXuXS.V p : q %.O.,.,.,.&.,.%.,.,.&.O.,.&.&.7.B ",
"v.B l +.<.,.,.,.%.$.f.n.e.e.e.g.2.w.3.w.;.p.Y U iX$XXX4XyXNXuX^.D.S.T &.T D Q 9.w.5.&.C w 8 p @.<.&.&.&.o.&.&.&.&.<.<.&.&.7.O.V ",
"4.8 t q <.<.<.<.7.&.E z.^ ^ ^ t.S a.=.=.p.-.I o 6.{.^.4X0XS.5.V 5.&.<.&.&.8.5.p.5.<.@.$.N b a *.5.A.S.D.^.k.6.6.6.6.<.<.7.7.#.0 ",
"v.e w O I 6.<.7.<.5.h.l.W ^ 0.g.M =.p.-.p.p.V , 3 % y ;.&.&.5.7.8.7.<.,.8.Q V &.1.c e $.@.$ i C.uXNXkXiXVXNXwXh.5.&.*.;.5.5.J 4 ",
"4.t a , V s.<.7.7.5.s.n.w.=.e.3.A < p d.1.d.+.% x % y h.7.7.7.<.<.c.7.7.<.C B &.c f b N Y   M CXiXXX{.XX_.W.uX<Xx.x.U.2XqX7XI.~ ",
"$.- : & d s.8.c.7.8.s.$.J $.-.P -.;.u f.d.v.l 8 j % +.v.7.8.7.8.8.8.7.8.8.T C o.e c 9 N g.W `.NX3X$XyX[.T.W._.9XuXyXkXBXfXaXVXjX",
"2Xg.=.d B 6.s.s.8.6.8.u u V V p T i H k.6.d.k 9 c b z v.8.7.8.8.8.8.8.s.h.T H x v 1.@.;XBXaX5X1XyX3XXX].I.).).Q.R.6X#XyXkXkX8XOX",
"qXeXpX!.Z.^.D.b.h.S.k.;.3 , s d q B h.n.b.p.p C y % y h.b.b.8.b.s.8.b.b.h.*.L c v j : 4 G.fXwX1XoX*X9XXXF./.Q.Q.R.#XyX#X6X9XG.G.",
"a.4 a : H b.n.h.h.5.Z.S.;.;.A *.B , I n.n.b.p I 3 3 P k.n.8.b.8.S.S.b.d.n.I t x f f $ t S U C.eXkX$X$X].B.G./.Q.}.#X#X#X9XW.Q.XX",
"I - - O 3 k.U.^.uX<X{.Z.w.=.R w.5.u d n.m.n.I P , - K k.Z.k.S.Z.h.h.k.Z.S.Z.g.M > 9 - a J X # E iXZXkXaX8XmXCXqXjXzX#X$XyXhXgX.X",
"R D B A 9.4XiXZXjXxXkXq.U W V.2.A 3 3 !.C.3.H L - y I b.T Z.Z.Q.].].$XkXcX=XsXtX! * - ; U i W w.U.a.9X1XE.!.f.i x.VXkXyXSXNXR * ",
"oX9X7X4XXXyXyX*X*XyX3Xq.m N Y N i d d ).;Xn.3.J   p ;.d.Z.4XZXDXDXDXDXDXDXdX+XsX8Xu.g.a.a.2Xz.1 4 X Q U.5 o O o *.^.E.XX7X=.& s ",
"#XoX>X{.{.yXkXkXsXsX+Xn n U Y Y *.< 1 ).FXBXmX2XR E B h.T kXAXDXDXnXlXcXAXcX XT.H.XX).K K -.f.: X 4 R a.k.1 $ : T !.Q E p.q p e ",
"@Xx.x.uXuXNXXX].ZXZX`.7 W ^ e.e.-.u 4 {.wX` ! 5X7X<X[.XXG yXbX*X*XnXnXDXAXaX8XqXT.I.r.d.r + 9 t m K e.r.n.1 : t a D.p.f.P t w h ",
"S.$ 9 t K 7XU.~ ].ZX_.l.t.2.3.4.I u 7 (.kXA.6XzX}.K. XBX#XlXnX%XZ %XxXxXlXR.n ~.CXqXJ i k p L $.-.J w.3.-.- r q d a.h.a.p q l 9 ",
"v.j e t A VX).~ ].zXG.^ e.e.3.2.H i ; E.NX@X X}.K.K.}.vXtXDXDXkXq.XXBXvXxXR.M $ *.n.4.w y > - - > > ; # L a p # * E a.K o - ; u ",
"3.a 9 $ ~ BX(.D @XxXq.q.V.2.g.t C H ; 3XBX|.K.L.K.5XfX9XV.CXtXP.n.=.9.1XBXB.J m O L 1.p I < u q $ > $ X $.a 1 J P.1X7X).z.G _.7X",
"w.7 # # ~ VXU.U XXBXi.G t.W 3.a d.i 2 5XSXaX9X.X.X.XD 0.W eX3.X u ; = H.SXP.N t w *.;.u T - B u # $.d.W D 5 U.mXjXfXhXoXaXuXjXzX",
"Q.i.G.W.XX9Xw.J l.iXVX9.0.0.J e.d.1 6 jXuX_ z.E s X m r.=.;X-., H , 6 !.wX3.m $ 2 x.x.) l.F D A (.mX1XOXfX9XtXT.+XnXcXdXaXsXlXlX",
"BXkXaXVXiX) P L s E qXG ! Q ^ 3.$.1 2 3X[.6 Y X 9 > H w.S 2X2.$ s * . l.C.S M 2.XXfX9X1XgX(.{..XqXOX}.K.$XsX#X6XbXnX=XdXvXsXvXsX",
"!.d.d i ; a : $ t > 7XV.2.K f.P t r 2 2X4X6 ;.r : R ).oXq.wXk.m n.n.n.`.Y.G.1XgXyXuX5XoXaX8XyXJ.A.Q.].$X$XK.R.'.dXvXdXdXnXAXDXnX",
": : < u p n.+.9 e q gXq.7 i N a 9 a K g.<XB u ; ~.gXfXZXvXZXl.* A u Y tXmXgX5X`./.P.( ! G.oXBXfX1X@XjXxXlXtXfX8XlXcXcXcX&X=XsXtX",
"B A K T v.@.@.w t t tXC.M U N N I u =.q.y.u.u.B.NXR.].9X}.SX5X# D r.n x.x.w.H 1 a o J 2.0.= z.).E.{._.k.Y S g.Y.5XSXAX$XH.L.@XtX",
";.h.E 5.l f $.X $ M Y.V.N.e.V.W a.K 5 `.tXOX7XmX5X|.oX9X+XaXBX1XgXiXgXCXP.=.*.: 9 9 d.N g.4 A * . A i : @ $ X . R 9XjX8X@XqXE.R ",
"& & : + $ j d.r.C.C.tXN.^ ^ N.2.K 2 7 7XhX5X).V.Y._ ~ u.'.hX@XOX|.Q.H.hXSXF.n 7 3.2Xz.; @.r p 9 u d.@.L 8 c 8 9 P A e.F 5 n m 2 ",
"% y w : 9 t =.D C.Y.`.` ^ V.3.3.z.K 7 ).8X`.P.K 5 ; 2 0.^ R. XG.G.].R.$XfXjX|.|.VXeX3.a s w t q , p.x x $  .e 9 ;.L P # i u f.*.",
"e C w + 9 a J   n ^ `.W 3.4.Y 3.m.g.5 ~.7X^ Q =.u =.-.H . j.5XQ._.K.L.}.`.oX/.t.V.3.J 1 a r t j , *.I #.8 +.8 : $.L P > -.f.> $.",
"% q l a a * U u.tXtXtXW M > M e.m $ 2 2XmX( . p l w b - 7 U.7X1XuXuXfX9X5X/.0.; < H n.1 r t c w , H @.*.: @.9 t $.1.a > $.r @.a ",
"z.<X7XiX5XQ.%XtX'.Y.`.0.y.0.g.g.Y R S ^ ( 5.% b b e 8 : r ~.VX`.D K ).VXqXD d J H -.P u # x +.w q *.I I + $.9 + $.4.r t $.r q > ",
"9X{.].].aXtXdX&X'.T.`.N.^ t.y.j.W g.M /.E.Q - b @ 0 b 0 J ;X!.; $ & < d.0X3.o > : - ; d - @.w w - *.u I $ L j y @.@.8 a P q 1 o ",
"{.>X{.Q.L._.$XbXzX+X+Xi._ _ u.u.R e.5 .XmX2X^.>Xs.5.V d B 5.P $ p 8 8 X @.P w y & > s a , %.w 0 X g.1 $.9 @.j t c 9 u 1 5.6 S._.",
"H 6 F 7XiXZ.$XyXvXZXtXu.0.^ y.! U W 6 U.I.7Xk.-.B B 3 y I p.N r j + j 8 l H d u - < V V q <.0 0 q d.1 N w N N t N =.- l.qX{.XX|.",
";.X & I 2XwX@XkXBXzXzX` y.t.t.M d d S i 4 ;Xc - % & 0 d I f.q t w % p X B I 3 B u B E d d P $ + 9 4.9 N t a a = # U.1XyXXX[.E.Z.",
"P : : y 3 F Z.vX}.OX'.Z 0.2.2.W m , H ; J !.L x 0 , 0 y V T - u , & ; A l.z.).qX>XwXMXx.< H : : N f.a a r N z.!.H.1XSXNX4XQ._.H.",
"w x y p k < 6 _.5XQ.I.F n N e.4.N j N % s a.L +.% s O s H H , > 4 ; E.BXkXaXhXuX[.].oXmXz.3 O @ $.e.> $ m j N d.!.2X<X1XNXmX4X<X",
"q p q > y > I F U.mXtXB.n r Y Y  .e %.u i E I $.< d & , ; U.4X7X{.gXhX6X*X}.J.}.].R.J.].qXS.5 *.7XOX~.!.=.$   2 * A Z . x.q.=.9.",
"8 x % 0 t 9 p d.@ W 1Xi.0.2.N N 8 j L B B 5 =.a o i o . Z.BXaXzXBXxXvX#X$X}.L.R.G.R.'.|.8XgX).<XtX@X6XhXwX~.U./.|.7XmX.X9.K , X ",
"w l + 8 p w e d.a ; q.B.^ 3.*.$.q j s 5.F = a.C.!.4X>X4XZXvXxXxX=XsX=XlXdXlXvX#X X X@XR.J.G.<X7XjX@XF.F.(.Y.~.2X.XqX.X! A *.c 8 ",
"e x + : r t   a.Y 2 D ~.0.0.2.Y a p u s.*.! P.uXNXSXZXkXzXAXAXxXnXcXdX=XxXdXvXlXlXbXAXZXhX7XeXC.e.5 5 i P > $ r a H H o u a w : ",
"C C : 0 - 2 K ~.(.E.u.u.G V.2.^ s r P -., B 5.D z.Q._.OX@X8XOXL.%XdXdXcXvXsXvXyXsXyXvXkXhXU t r f.m N a Y N s X $ L a - %.x - 8 ",
"V 0 : d # 2XmXtX X}.aX6XN.^ ^ S m > m Y % a V q O r ; -.).Q.OX].$X=X=XbXAXDXfXjXwX3X8XqXG # u 2 2.4 2 e.`.MX1XV.R A p : @.L w q ",
"n.Q ; . y.BX@X}.*X}.sXlXlXJ.Y.E.2.; m *.- l c b w j 9 O d 7 R |.DXcXvXzXBXG.F 5 r.a.z.F . = 2 M Y.i.) hXNX[.T.'.qX~.;   @.p N % ",
"0X9X/.H.mXtX'.K.zXnX&X}.+X#X@XtXtX`.2X2.@ m c + c + $ r a M 2 1XtXB.U.C.Y $ 1 O ;   & 5   # Y.jXjXaX&X@X+X'.Y.T.Y.mX2X^ a.; m u ",
"9X{.W.+X'.G.J.'.+X&X%X+X+X+X X+XL.R.tXY.e.C.:X$.9 X X < < E 2 Y U.W F # r $ a m w.! R d.M N.BXtX}.K.}.%XK.J.J.L.R.'.1XoXmX!.R * ",
"_ A.|.OXR.J.J.}.K.}.%X#X&X+X&XsX@X+X@XOXB.V.F.Y.1Xu.G U Y K u 7 ) y.M ; m 2 S Q F.@XVXNXtXtXtX+X@XR.}.}.+X}.J.R.R.tX@X+XaX@XF.^ ",
"H._ '.5XT.R.+X+X}.&X+X&X#X+X}.J.R.J.'.J./ u.I.i.B.) P./.U.W m g.OXY.P.t.g.e.W F q.T.|.W.'.B.C.V.'.#X+X' K.K.+X'./ N.N.T.L.H.i.Q.",
"N.' N.C.N._ N.N.N.N.B.N.N.N.` N.i.A.H.i.j.u.Q.Y.n m V.m 7 W ~.'.G.N.N.C.N.V.Y.B.N.' ' N._ _ 2.^ V.N.N.~.W n C.^ 7 7 j.g.^ y.y.' ",
"N.` ` n ~ N.N.N.N.N.N.^ N.N.W e.9.q.H._ u.Z 6 6 U C.C.2.W V.B.B.+XF.`.C.N.N./ ` G.5XN._ ` N.N.N.N.N.e.2.M 2.V.V.V.U 2 7 ! ^ / N.",
"` N.N.^ N.N.B.@XJ.'.' ' ` ^ ^ U q.~ = q.u.H./ _ B.N._ N.N.V.j.) V._ M M 3.N.N.~ 0.~.2.U N.t.N.e.U ^ ^ M 2.V.u.B.y.B.N.q.y.S ^ 3.",
"N.V.3.V.y.y.^ N.N.B.N.N.t.V.N.^ 9.9.) P.P.9.q.x.V.y.u.V.I.V.j.F 2 M Y 3.e.V.C.U M M m g.g.N.N.V.N.V.j.y.0.N.q.H.F.N.F.U.C.3.3.f.",
"3.V.` N.e.C.J < 5 # i D M i D D I 5.n.T m $ ; H W g.3.2.T 5.B 3 H w.d.x.V.g.J m r u d.C.V.V.j.U Y e.C.C.j.u.Q D =.A A D J J E n.",
"# # m N L 3.t > p a p - , , & X , : < : r 8 j : $ $ - ; & & & B O & . ; 7 # > $ 8 % > m d d 2 # $ 2 U M F 4 ; X - , : - . * - > ",
"m m t 2 $ $ q p l x k V V L k 0 p > q P p : N 8 j p p w V & % V y 0 B y 0 : j z % 0 u q p > t q N m M t w w q q a l l k 0 , a V ",
"f +.+.+.#.p : p V p l p y h z w C q l V l > k % x k k x y % % C y v V k k 8 } #.y : p V x w t 9 t N +.+.#.e x 0 l k x k y b y I "
};
