/* XPM */
static char *_4487_90be5ed70c76af0c2048ee397abc0f88e13ecff6931d97f1cc227ef188be605f[] = {
/* columns rows colors chars-per-pixel */
"64 64 256 2 ",
"   c #0B0501",
".  c #0C0C03",
"X  c #0C0B0C",
"o  c #060803",
"O  c #130C02",
"+  c #130D0B",
"@  c #170C06",
"#  c #0C1402",
"$  c #0C1907",
"%  c #131303",
"&  c #13130C",
"*  c #1B140C",
"=  c #141C0C",
"-  c #1C1A0D",
";  c #171904",
":  c #0C0D13",
">  c #0B0E18",
",  c #130E13",
"<  c #110E1B",
"1  c #0D1114",
"2  c #0D111B",
"3  c #0C1910",
"4  c #141213",
"5  c #1C1514",
"6  c #1D1B14",
"7  c #13131B",
"8  c #1D1B1B",
"9  c #181819",
"0  c #251909",
"q  c #241C14",
"w  c #291D15",
"e  c #231D1A",
"r  c #2A1E1B",
"t  c #211615",
"y  c #341D12",
"u  c #14230B",
"i  c #18270C",
"p  c #1C2413",
"a  c #1B2B15",
"s  c #182816",
"d  c #1C341B",
"f  c #1A3516",
"g  c #0E240C",
"h  c #26250C",
"j  c #352708",
"k  c #232214",
"l  c #24231C",
"z  c #2B241C",
"x  c #242B1B",
"c  c #2C2B1E",
"v  c #282714",
"b  c #31241B",
"n  c #342A1C",
"m  c #362816",
"M  c #24341C",
"N  c #283519",
"B  c #383519",
"V  c #2E310A",
"C  c #0F1624",
"Z  c #131522",
"A  c #151924",
"S  c #1A1C24",
"D  c #151B2B",
"F  c #191D2B",
"G  c #10162C",
"H  c #171D31",
"J  c #251E21",
"K  c #1C222D",
"L  c #192328",
"P  c #1D2432",
"I  c #1C2735",
"U  c #1E3620",
"Y  c #252323",
"T  c #2B2523",
"R  c #2C2A24",
"E  c #2D2B2A",
"W  c #24292B",
"Q  c #322624",
"!  c #332B24",
"~  c #332C2B",
"^  c #3A2D27",
"/  c #2A3724",
"(  c #3C3324",
")  c #35322B",
"_  c #3B342C",
"`  c #373A29",
"'  c #212632",
"]  c #232B35",
"[  c #242D3A",
"{  c #2B2C38",
"}  c #362D32",
"|  c #2C343C",
" . c #393734",
".. c #46351A",
"X. c #493114",
"o. c #443524",
"O. c #42342B",
"+. c #453B2D",
"@. c #4B3D2C",
"#. c #493924",
"$. c #543B26",
"%. c #453B34",
"&. c #4B3D33",
"*. c #443A36",
"=. c #543D33",
"-. c #38432A",
";. c #3A4332",
":. c #294129",
">. c #254017",
",. c #6B4E18",
"<. c #48442C",
"1. c #54442C",
"2. c #574629",
"3. c #4C4334",
"4. c #45433B",
"5. c #4C443A",
"6. c #4C4B3C",
"7. c #464634",
"8. c #534535",
"9. c #544B3C",
"0. c #5B4D3B",
"q. c #574837",
"w. c #4B5537",
"e. c #5A543C",
"r. c #64553B",
"t. c #6D5033",
"y. c #726437",
"u. c #5A431A",
"i. c #2F3342",
"p. c #443F45",
"a. c #4A4844",
"s. c #574C45",
"d. c #5C5243",
"f. c #5A5648",
"g. c #554C5D",
"h. c #584C5C",
"j. c #5A5555",
"k. c #4B5244",
"l. c #635444",
"z. c #6B5C4C",
"x. c #665948",
"c. c #745B47",
"v. c #665A55",
"b. c #6B554D",
"n. c #6A634A",
"m. c #76654A",
"M. c #6B6455",
"N. c #736353",
"B. c #776958",
"V. c #7A7359",
"C. c #554C61",
"Z. c #5B4D62",
"A. c #5D5164",
"S. c #5B5165",
"D. c #625465",
"F. c #685764",
"G. c #6B5A64",
"H. c #655768",
"J. c #725C65",
"K. c #7B5F64",
"L. c #745C6B",
"P. c #7A6164",
"I. c #776664",
"U. c #7A7467",
"Y. c #756C69",
"T. c #5D6244",
"R. c #8D511B",
"E. c #975C36",
"W. c #885832",
"Q. c #AC6C2D",
"!. c #9C6122",
"~. c #C47331",
"^. c #986B49",
"/. c #8C6B5B",
"(. c #85675B",
"). c #936B5C",
"_. c #9A6B5B",
"`. c #986A55",
"'. c #867659",
"]. c #9D7454",
"[. c #967359",
"{. c #8E6F49",
"}. c #A8794B",
"|. c #BA7A4A",
" X c #A36F5A",
".X c #A56F55",
"XX c #AC7358",
"oX c #A77555",
"OX c #B47552",
"+X c #BD7A52",
"@X c #B47A53",
"#X c #A16A43",
"$X c #846463",
"%X c #8E6963",
"&X c #896766",
"*X c #946961",
"=X c #936962",
"-X c #857A67",
";X c #867C76",
":X c #917768",
">X c #AF7861",
",X c #975F48",
"<X c #C97D4B",
"1X c #C57C51",
"2X c #B08638",
"3X c #F6B517",
"4X c #F2B114",
"5X c #DB9A2D",
"6X c #C98B3C",
"7X c #D78A3B",
"8X c #CC913A",
"9X c #D79636",
"0X c #CC862A",
"qX c #E78A3A",
"wX c #E69938",
"eX c #E69B2D",
"rX c #DAA634",
"tX c #E7A428",
"yX c #F4AA27",
"uX c #ECAA2E",
"iX c #FDC808",
"pX c #FCC814",
"aX c #F5CB29",
"sX c #B98348",
"dX c #BA8356",
"fX c #AC8955",
"gX c #888368",
"hX c #95856B",
"jX c #8C8975",
"kX c #958873",
"lX c #9B9279",
"zX c #9E916F",
"xX c #AA886A",
"cX c #A59479",
"vX c #B08D6C",
"bX c #93835E",
"nX c #C88646",
"mX c #D78747",
"MX c #D08B53",
"NX c #E68C44",
"BX c #E79349",
"VX c #EB934F",
"CX c #D8B151",
"ZX c #E9B145",
"AX c #CF9B68",
"SX c #D7A96D",
"DX c #F1CD4D",
"FX c #958887",
"GX c #A89986",
"HX c #A99482",
"JX c #B2A88C",
"KX c #CDB699",
"LX c #CFBCAC",
"PX c #D0C4AE",
"IX c #EACEB2",
"UX c #EEDCCD",
/* pixels */
"g.g.h.h.h.C.h.h.h.h.h.h.C.g.g.C.Z.Z.C.Z.Z.h.g.g.C.C.C.Z.C.C.C.Z.h.h.h.s.g.C.C.g.C.g.C.C.C.C.C.C.C.C.C.C.Z.C.C.Z.C.C.C.C.C.C.C.C.",
"A.A.A.A.A.A.A.A.A.A.A.A.A.A.A.A.Z.A.Z.Z.A.Z.A.A.A.A.A.Z.Z.H.Z.Z.b.F.v.H.FXC.C.A.Z.Z.Z.Z.A.Z.S.S.A.A.A.S.A.A.S.S.S.S.Z.A.A.A.A.S.",
"D.D.D.D.D.D.D.D.D.D.D.D.D.D.A.D.D.D.D.D.D.H.D.D.D.H.H.A.A.H.D.h.J.UX;XQ FXF.H.C.H.H.H.Z.D.H.D.D.D.D.D.D.A.D.D.D.D.D.H.D.D.D.D.D.",
"H.F.H.H.F.F.F.F.G.G.J.G.G.G.F.F.F.F.F.F.F.F.F.F.H.H.F.H.v.G.G.h.FXUXg.E j.;XG.F.H.H.H.D.H.F.F.F.F.F.H.F.H.v.F.F.F.F.F.F.F.F.F.F.",
"L.L.J.J.J.J.K.K.K.I.I.I.K.I.I.L.J.L.J.J.J.J.L.L.J.L.K.G.v.I.v.-XPXU.j.j.b HX&XH.L.L.L.L.J.L.L.L.J.J.J.J.J.J.J.J.J.J.J.J.L.J.J.J.",
"K.K.K.P.$XP.B.(.(.(.$X(.$X$XK.(.B.P.I.K.L.K.K.L.P.J.P.P.I.P.P.LXJX@.a.&XQ s.FXK.L.L.L.$XK.K.K.L.K.K.K.K.K.K.K.K.K.K.K.K.K.K.K.K.",
"$X$X(.(.(././././.[.[.[././././.$X&X$X$X$X$X$X$X&XP.$XB.&XN.cXIXjXT %.;XO.} b.P.$X$X$X$X$X$X&X&X$X$X$X$X$X$X$X$X$X$X$X$X$X$X$X$X",
"/././.).[.[.].].].].].].].].].].)./.).%X=X&X%X%X%X=X(./.(.B.LXGXM.a.^ j.p.Q s.kX(.=X=X=X=X).&X&X%X%X%X%X=X=X%X%X=X/.%X%X%X%X%X/.",
"`.).[.[.].].}.}.}.}.}.#X}.}.^.}.[.[.[.).).).).=X/.)./.{.xXGXGX'.FXv.) )  .}  .FX>X/.`.`._.).%X=X=X=X=X=X=X=X=X=X).=X=X=X=X_.=X=X",
"]..X.XoX}.}.}.}.fXsXsXfXsX}.}.fX}.].oXoX X_._._.`.).,XKXUXKXGXHX=.v.jXE a.*.r l.cX`..X`._._.=X=X_._._._._._._._._._._._._._._._.",
".XoX@X@X@XsXsXsX2XsXnXsXsXsXsXsXsX}.@X}.oX.X.X.X].].].UXKX(.cXd.%.e j.g.| i.~ Q :XxX^..X>X X X X.X X X X.X X X X X X X X X X X X",
"@X@X@X@XnXsX6XsX6XsX6X6X6XnXnX2XsXsX|.@XOXOXOXXXoX.XvXKXxX2.#.( Q } 8 j.a.a. ._ 1.xX}.oXXX>X.XXX.X.XXXXXXXXXXX.X.XXXXXXXXXXXXXXX",
"|.+X|.nXnX6X6X8X8X8X8X8X8XnX8X6XnXsXnXsX+X@XOX@X@X}.xXvXt.#.e.0.z ~ ~ W ) k.Y a.^ t.vX XXXXXOXOXOXOXOXOXOXOXOXOXOXOXOXOXOXOXOXOX",
"nXnXnXnXnX0X8X9X8X9XrX9X9X9X8X8X8X6X6XnXnXnX|.+X@XvXIX{.2.r.n.j.T + Y 8 W a.E E r b (.>X>X@X|.<X1X1X+X+X+X+X+X1X1XOX1X+X+X+X+X+X",
"nXnXnX9X8X9X5XrX5X5XrX5X5XrXrX8X8XmXnXmXMXnX+XdXXXAXfXX.m.<.M.U.%.& l e X a.a.) 8 r q.(.vX@X1X<X1X1X1X1X1X1X1X1X1X1X1X1X1X1X1X1X",
"8X7X8X9X9X9X5X5XtXtXtXtX5X5X5X5X9X9X9XnXmXnXnXdXMXdX,.y.e.#.k.;XR x 6 T 5  .k.g.J J *.$.^.MX<X<X<X<X<X1X<X<X1X<X1X1X<X<X<X<X<X<X",
"qX9XeX9X9XrXeXtXtX4XtXrXtXtXtXtX5X5X9XNX7X7XmXnXSXfXu.r.1.8.B.d.& k + e E s  .g.6 . 0 @.2.dXmX<X<XNX<XmX<X<XmX1XnXmX<X<XNX<XmX<X",
"7XwX5XeX5X5XeXuXtX4XpX4X4XtXtXrX5XwX5X9XwX7XmXnXAX].X.B m U.-Xn . Y 9 7 S } { J 8 p 6 @ o.XXMXmX<X<XNX<XmXNXmXmXmXmXmXmXNXmX<X|.",
"qXwXwXeXtXtXyXyX4XaXiXiX3XuXZXCXrXwXrXrXwXwX6XAXoX#.m +.9.x.4.X 6 e Y J X )  .} 5 + e 5 @ $.MXmXNXqXNXNXqXNXNXNXmXNX7XNXmX<X<XR.",
"BX0XwXuXyXyX4X3XpXpXiXpXaXrXCXfX2XCXBX0X9XBXSX}.y.o.0.v.U.^ 5 4 8 , W W Y 6 r Q ^ + J J t 0 .XAXmX<XNXNXqXqX<XVXqXNXqX7XBX1XE.R.",
"NX~.0XyXtX4X4X4XiXiXiXpXDXCXfX[.,.vXAX!.2XSXfX[.2...n.M.%.+ ! t 4 E J J R T + 5 } t J , X 0 ..dXVXVXNX~.~.NXNXNXqXqXqXqXBXQ.E.t.",
"<X!.!.ZXyXyX3X3XiXiXaXDXCXy.n.l.r @.oX!.MX{.t.2.V x.r.z.b O.%.J   E 8 8 6 4.E , + + E } & O y $.}.AX<X!.Q.VXVXNXqXwXqXVX~.#XE.t.",
"E.R.R.8XyX4X3X3XpXaXDX2X,.bX:Xp.T J j c.fXbXJXw.m 0.r.m.:Xx._ ~ + J *.- k 8 p.{ 7 5 r %.* . T b X.W.#XE.R.~.NXqXwXqXqX<XQ.W.,XLX",
",X,XR.R.tX4X3XiXaXrX,.y.V.jXd.^ e } ; 0 <.cXy.B n ..V.JX'.-XM.R 5 6 R k a.) J 5 8 T T - 6 %   z y m W.{.,.,.~.MXQ.VXmX~.E.dXUXGX",
",XW.t.,.2XyX4XaXCXy.bXu.N.l.O.b   J b 0 w x.7.; 0 x.PXcXx.5.jXs.5 r R / k.k.s l 4 , l & o % - O w 0 2.m.y.j u.{.j Q.|.Q.AXKXcXr.",
",Xb.2.0 ,.8XuXCXy.'.V.2.$.=.*.w @ + e Q . x ` % h cXlXGX6.7. .4.s._ % / a ;.;. .6 * 4.- ;.GXV.7.  - N e.-.u j X.0 c.AX}.[.'.y.m.",
":XN.#.0 u.y.SXW.X.1.V...2.c.6.& e e , E 9 1 - @ lXm.GXFXx 4.p.*.t f. .# s ` ;.j. .k h n.PXlX<.U.d.& - z :.u h 0 j bXy.$.#...gXN ",
"o.z.q.@ V bX{...<.n.#.u.2.m.z 4 l e 8 S : 3 O z.m.t.gXM.5 J ^ 5.r b 6.= a / p ` f.-.` JXcXJX( z a.4.T q ; o v n.'.m.$.y 0.v.` $ ",
"_ @ J *.q.V.B r.0.m m 1.q.r.l = k u s 3 9 o m {.r.'.V.<.k R T T T o p a.6 + x R N -.hXJXxXhX) } 4 l z 9.<.( _ f.x.1...m.c.b ~ 9 ",
"a.t J e * v e.0.o.l.&.%.x.3.. u c $ / s o ( :X{.y.bXd.`   T T Q k T 5 p 4.O % ; V gXlXV.r.hX~ } 8 & k % v k 6 6   m m.r.j x.} X ",
";.= + J 8 . * b b.l.Q *.M.R - k v i p p - :X(...V.n.;.;.9 Y 6 ) 5 4 E p % z O j jXn.q.o.n.x.5 T 6 & l ~ e X J J c n.r.h B.=.@ + ",
"a.z 5 5 Y e + w n O.s. .a.$ a p u v p . v.d.O.=.n.z :.:.W u 6 z Y 8 8 E . O B zXr.e.q.@.N.B   Y k p 8 e L W 9 s N w.v 7.l.w   &.",
" .Y e T T , 5 l * 6 ` -.:.s M u u / # V b.m Q b.7.-.d i d 9 R R 9 Y 8 6 . 0 V.#.t.n.j 0.q.z % / ` = s x W 3 p p i / -.w.7.N <.B.",
";.p k 5 ~ T & e ~ & s s s >.M M x $ B n.#.B.O.=.+.-.f d d s x E 6 L & - % l.r.e.n...z.z.( ! 3 ` ` u $ $ ) = p a $ a / N M N ;.B ",
":./ # - ) R 6 p p = s s f f i x - - gXB c.l.r O.T.-.f f d U s s Y X & % B w.B r.v B.0.@.0.c $ s s s 3 9 d N ` i u x N N i u N -.",
"f M # # q l = & = # / d f / / p . U.7.B V.( _ j. .M d g f / a p s = o n B h -.V e.e.@.d.M.x i d W / Y s u N $ p = / p i N N >.w.",
"f >.N ; U.M.d # x ;.s f f f d . - 5.c q.3.v )  . .N M f f :.f g p # ; ` @.-.h N T.6.5.6.M.p s f / / :.d $ i x x = = B w.<.i f >.",
">.>.N V.JX9.;.` M M / d s f s $ & k 7.-.a g x x x / f >.f g f g h . <.gXV.8.#.N w.7.;.<.7.a M d L U g g u i u . B V.m.n.T.w.N N ",
"f V V.U.` v c 6.;.-.:.f :.f a u # x / g s s p d a -.d i g f a $ h V.zXV.<.o.-.! -. .p R a a -.a f U U s s # . T.JXJXr.0 v f.7.i ",
"V n.n.e.8.( c 6 / M a g f g a g o u a f / s a a p u s $ $ # V w.kXgX<.<.0.h ; c R z p p / x i i d g $ g $ o V.JX'.<.q.( n ( k.# ",
"V.e.c.N.( _ R c _ Q ` p i f g g N N a g s s g i -.h $ . . p M.n.2.1.-XV.0.jX3.* k R p & p # % $ g # $ . . gXkXc...1.( ! ^ e ( 7.",
"2.r.l.=.z ( k l ^ ^ ! _ = o / U.M.B $ $ g $ o T.jXd.! l f.-XV.r.y.z.$...0.x.^ z z T ) 5 % c 9.p # # #   B.[.#.X.l.hXo.O T *.z 4.",
"r.0.q.+.k 6 R z t Q b b z ` d.V.n.<.p 9 o # n.jXn.z.b r s.B.f.8.c.0.r.$.c.$X^ v k 6 q T _ Y.z v x $ . '.'.X.t.K.z.@.-Xf.n 6 ! 8 ",
"N.8.x.;Xv.E E e ^ O.r y _ ( d.B.V.w.n T # w.B.e.#.&.b T l ! o.N.=.q.N.q.N.N.%.l ) l 5 z ^  .f.T z z N.'.r.r.c.0.o.d.M.n.jX) T E ",
"e.0.l.=.n ) E ` T O.^ Q n z _ O.l.+.5 t ) v.1.z.b.9.q _ z 0 ^ q.%.9.s.=.b.l.s.k l Y T Q r ^ a.5.n N.B.o.&.s.l.q.r.N.m l.jXU.T l ",
"m.l.o.0.+.z e E _ e Q J 6 Q r r r ~ J , + f.B.l.8.n z 0 0 b t @ ) *.O.o.K.b.s.c x 6 r J r Q ~ _ v.B.0.v.f.&.#.=.hX0.0.@.<.3.5.z ",
"n.1.B.N.&.! q 4.k e l T 4 5 T t , S : X 4 s.9.O.z ^ B p 7.7._ ~ 5 6 l Q O.O.5.Q l E T 8 t r 5 t r r ^ _ ( 9.d.V.B.8.N.@.8.B.d.m ",
"r.0.'.@.o.q T Y T T W x R x e e < < 1 1 8 ) O.Q T k q +.jX<.0 b l & 5 + t T Q _ 5 T R s T J t J r t T Q n ! ( 9.O.l.K.l.b.s.N.m ",
"t.V.r.1.8.5 z R 6 e  .~ l x 7 7 > C > 2 9 L 4 5 t 0 n 8.B.....y z l 5 4 8 7 S J 7 4 8 Y J T Y Y 8 8 4 8 q z v b w &.f.%.8.&.v.n ",
"'.x.j 9.5.e T ~ _ e * e l 8 X 1 < F Z 2 o X + o O * m z.lXcX/.@.O.l e 8 , 4 < : : X 4 4 4 4 S J W } 9 + @   q 5.&.Q b ^ a.&.d.s.",
"q.#.0 _ *.T l R e e - 6 4 4 4 X Z S : s a.c v B ` B 8.hXN.q.o.b 8.6._ E 9 X 7 4 4 + + . X O 4 + 5 5 T O q &.q.B.d.( ( k n ^ O.&.",
"8.^ ^ q _  .e 5 5 @ @ O     + & , X } G.j.3.<.0.0.-XhXx.=.&.q.n - Q _ 8 r e + * & 4 T R l 8 . @ +   @ 5.;Xl.O.=.n z _ ( w w b n ",
"d.n ( T 6 T R ~ l O   k v.s.z v ! 8.U.d.3.&.n n @.e.f.q.9.0.M.3.q ! * v *.a._ q z f.M.G.a.~ E z 0 3.z.x.B m s.O.! ^ k ! w ( @.N.",
"&.w Q R } ~ } Q w O 9.-XU.d.+.&.d.-Xq.#.&.d.9.n q q q v 0 - m k k n ! ~ q T b  .9.s.`  .5.R E k m hXr.1.&.8.&.r t Q z @ M.'.n...",
") l R 8 E + 4   * B.B.+.8.<.w o.o.j l.N.q.3.+.Q 0 ~ ~ z ~ ! & 6 6 z !  .z q ! _ s.f.M.)  .*.9 O e.2.q.x.8.M.j.} T ~ , Q 6.9.B #.",
"M.x , & X 3 X & s.f.x.d.o.x.N.( ^ m m ( f.v.s.s.%.q ! 6 k E E 8 & 4 R R ) l T ~  . .l 8 6 3 X ~ l.2.1.#.=.x.&.e J 8 5 q T +.5.M.",
"W 1 X X 1 1 4 4 _ s.9.f.0.@.o.z 5 T T z Q 4.6.5.4.z & + , S { } S 1 1 Y R l e e e 4 X 4 7 1 4 S s.=.&.B.z.v.! k Q J 9 9 9 S T T ",
"7 X : > 7 Z 7 1 4 } 5.f.v.s.8.~ T J 8 8 5 q Y E 8 X X , X : < Z A 1 : 1 7 9 4 : , , : 7 A A A A J ~ &.j.s._ c E s 8 9 7 4 1 < < ",
"o > < G D D D 2 1 6 8 e J J W J 1 : : 1 1 > : > > : Z Z 7 7 S 7 7 A S 7 > > 1 7 Z Z F F S D Z Z < < 8 9 e + 4 4 X : 1 7 Z < < < ",
"2 G F G G H G G Z < : , 5 , : : > 1 1 > 2 Z A Z Z Z S S A S S S K P K F A Z 9 A A D H H D D A C < > : : : : : > > 2 C A F ' F S ",
"G F H G G G H P F Z 9 7 < < < G D D D K K D F P P K K F K L S S D A C A A 9 A C H H H H P P K K F F Z 7 7 7 2 < Z C C Z A K L Y ",
"S A S G G G G I P ] { ] F S D D D D K I P ' P K D K K K ] ] ' F F K ] W K P I I H H H I I P P I [ K L Z D S A Z D D D A K K W W ",
"L A F H I L L I K ] ] L L L P P K P F A D ] | ] P ] [ | | | | { { { ] P W ] K L H H H H H ' [ [ H L I I { F Y ' K F K K W ] ] W ",
"{ W ] P I [ [ ] I ] P ] [ [ [ [ i.' ' [ ] ' I W ] ] P ] [ [ I P [ { { ] P I I I I I i.i.i.[ I L I L D L F F F ' ] K L L ] | | | "
};
