/* XPM */
static char *_6883_1231beb8984f4c9f5eff2eba87a4efb2a8258b2e6d265e509c157eab9ec1fe8a[] = {
/* columns rows colors chars-per-pixel */
"64 64 250 2 ",
"   c #0C0A02",
".  c #0B0705",
"X  c #130C04",
"o  c #140C08",
"O  c #0B1603",
"+  c #14130C",
"@  c #1B140B",
"#  c #131B0C",
"$  c #191707",
"%  c #1B1B13",
"&  c #1D1C1B",
"*  c #171614",
"=  c #0D1E13",
"-  c #231A0D",
";  c #241A0A",
":  c #231C14",
">  c #231D1B",
",  c #261C15",
"<  c #0C2507",
"1  c #14230C",
"2  c #132B0C",
"3  c #19270A",
"4  c #17360A",
"5  c #142413",
"6  c #1B2414",
"7  c #152B12",
"8  c #1B2B15",
"9  c #1C2B1A",
"0  c #18261A",
"q  c #1A3314",
"w  c #1B3618",
"e  c #0E2F10",
"r  c #242214",
"t  c #2A2315",
"y  c #24231C",
"u  c #2B241B",
"i  c #232C1C",
"p  c #2B2B1D",
"a  c #272C15",
"s  c #322B1C",
"d  c #34281A",
"f  c #233B1C",
"g  c #283519",
"h  c #34351D",
"j  c #26290D",
"k  c #1B1E23",
"l  c #221E21",
"z  c #1B2326",
"x  c #1D2C2D",
"c  c #242323",
"v  c #2A2523",
"b  c #2D2A24",
"n  c #232529",
"m  c #2C2C2C",
"M  c #272728",
"N  c #332C24",
"B  c #322D2A",
"V  c #372B24",
"C  c #2A3725",
"Z  c #343323",
"A  c #3A3424",
"S  c #333B24",
"D  c #3A3B24",
"F  c #34332B",
"G  c #3B342B",
"H  c #3B3B2C",
"J  c #343B2C",
"K  c #282D34",
"L  c #342E32",
"P  c #343333",
"I  c #3C3A34",
"U  c #3D3E3B",
"Y  c #373836",
"T  c #2A3539",
"R  c #423B2D",
"E  c #463B28",
"W  c #433C33",
"Q  c #463D37",
"!  c #412F21",
"~  c #1C4313",
"^  c #274619",
"/  c #2A5117",
"(  c #2B4724",
")  c #374729",
"_  c #2E5523",
"`  c #365828",
"'  c #3B4635",
"]  c #3C5834",
"[  c #3B682C",
"{  c #2F691D",
"}  c #43422D",
"|  c #48462C",
" . c #455A2B",
".. c #454334",
"X. c #4B4434",
"o. c #4B4A34",
"O. c #45433C",
"+. c #4B453B",
"@. c #4C4C3B",
"#. c #444A38",
"$. c #544B3C",
"%. c #564A38",
"&. c #495638",
"*. c #53533C",
"=. c #57563C",
"-. c #51432A",
";. c #476737",
":. c #56663B",
">. c #4A7337",
",. c #4F7134",
"<. c #67583B",
"1. c #2C3A44",
"2. c #373D43",
"3. c #413E43",
"4. c #2F4149",
"5. c #35454C",
"6. c #3A464A",
"7. c #3C4D53",
"8. c #374953",
"9. c #3E5154",
"0. c #3E5159",
"q. c #444442",
"w. c #4C4B44",
"e. c #4C4D4B",
"r. c #454847",
"t. c #544C43",
"y. c #564C46",
"u. c #4A5546",
"i. c #545343",
"p. c #5B5344",
"a. c #555943",
"s. c #5B5C44",
"d. c #53534C",
"f. c #5B544B",
"g. c #5C5C4B",
"h. c #555A4A",
"j. c #43545A",
"k. c #49575A",
"l. c #4C5B5C",
"z. c #475556",
"x. c #5C5B53",
"c. c #535C5C",
"v. c #5B5D5C",
"b. c #565654",
"n. c #494E52",
"m. c #645B4B",
"M. c #645848",
"N. c #645D53",
"B. c #665C56",
"V. c #5C6244",
"C. c #5E614B",
"Z. c #546947",
"A. c #4D7443",
"S. c #577647",
"D. c #5C6259",
"F. c #5C7753",
"G. c #4A6A44",
"H. c #63634B",
"J. c #676449",
"K. c #627849",
"L. c #646253",
"P. c #6B6454",
"I. c #6B6B54",
"U. c #63645C",
"Y. c #6C645B",
"T. c #6C6A5D",
"R. c #646851",
"E. c #736B5D",
"W. c #746956",
"Q. c #697758",
"!. c #77755A",
"~. c #756647",
"^. c #4C5D61",
"/. c #455962",
"(. c #525E62",
"). c #536263",
"_. c #5C6362",
"`. c #5C6A6C",
"'. c #5A6769",
"]. c #5B6D73",
"[. c #56696E",
"{. c #636562",
"}. c #646965",
"|. c #6B6B65",
" X c #646B6B",
".X c #6B6C6A",
"XX c #676665",
"oX c #756C65",
"OX c #6C726D",
"+X c #6C7366",
"@X c #7C7464",
"#X c #73736C",
"$X c #797668",
"%X c #686E71",
"&X c #6C7372",
"*X c #6D7A7B",
"=X c #657477",
"-X c #797B74",
";X c #767977",
":X c #83775C",
">X c #837C6C",
",X c #847965",
"<X c #847D73",
"1X c #50873C",
"2X c #60893D",
"3X c #5B8648",
"4X c #5F8C4C",
"5X c #65884C",
"6X c #64954C",
"7X c #688956",
"8X c #75975A",
"9X c #6F8F58",
"0X c #71A555",
"qX c #6E8766",
"wX c #768866",
"eX c #799966",
"rX c #7B817C",
"tX c #76966D",
"yX c #79A867",
"uX c #88816B",
"iX c #8B8474",
"pX c #878579",
"aX c #938C7D",
"sX c #958B76",
"dX c #8D9570",
"fX c #A2967C",
"gX c #88AC70",
"hX c #828E5E",
"jX c #8EC373",
"kX c #6C7D81",
"lX c #778385",
"zX c #6E8084",
"xX c #868785",
"cX c #9A9587",
"vX c #93938B",
"bX c #A59C8A",
"nX c #A29D94",
"mX c #A9A596",
"MX c #B3AA99",
"NX c #B1AD93",
"BX c #B4B2A6",
"VX c #97B487",
"CX c #C6BCAD",
"ZX c #C0B194",
"AX c #AEC49D",
"SX c #D1C7B5",
"DX c #D5D5CB",
"FX c #F0E7D7",
"GX c #F4F3E7",
"HX c #DED9CA",
/* pixels */
"pX-X.X|..X.X.X%X.X.XOX|.|..X.X.X|.U..X.XXX XXX#X;X&X#X-X$X|.}.XX.X X.X.X.XY.|..X.XXX X|..X|.XX|.T.OX|.oXE.oX.XXX%X%XXXoX|.T.#X.X",
"-XlXxXxX;X&XXXXX.X{.U.XXXX{.{.XX{.#X X&X%XXX;XxXxX<XpXpXpX-X-X;X.X.XXXXXXXXX|.U.{..X&X.X.X#X.X{.}.D.XXXXY.U..XXX X{.XXXXB.T._.{.",
"&X&X#X&X.X{.U.(.{.{.U.{.{.{.{.{.|.|.rXrXlXxXxX;X<X;X;X;XrXpXrXxXlX-X;X&XXX{.{.XX;XxXxXxXxXxXxX;X&X{.{.v.B.}.b.}. X%X&X;X$X;X.X%X",
"v.v.v.v.{.(.{.{.b.D.{._.{.XX|.(.D.D.D._.#XB.&X{.XX{.v.v._.'.D._.v.v._.}.{.v.(.{.%X%X=X&X&X.X.X}.).'. X%X&X&X}.`.*XxX-X-X-X-XxXxX",
"c.c.D._.D.c.c.v.}.&XrXrX;XlX-X;Xc.x.U.pXBXvXd.v.c.c.).(.(.c.c.c.c.v.(.c.c.(.(.v.c.l.c.c.(.c.l.l.).l.).).`. XmXBX;X*XqXOX&X&X;X&X",
"c.l.z.z.l.'.&X*X;XOXOXOX X&X*XlX`.e.vXT.cXGXv.b.b.c.l./.k.(.D.`.'.`.'.`.(.l.l.c.c.(.(.^.l.^.(.^.^.k.^.^.l. XvXFXxX%X;X&X*X*X X X",
"l.^.`.=XkX*X*X&X X`.`. X X'. X].*X.X|.N.|.SXmXOXlXlX*X=X=X=X*X;X*X*XlXlXkX).k.l.k.l.^.k.j.^.^.l.l.j.^.l.l.&Xh.DXvXb.z.z.k.^.k.k.",
"l.[.[.].=X*XlXlX&X=X=X%X`.=X=X=X*X;XU...t.BXBXT.OX&X=X=X=X[.^.l.^.^.(.[.].[.).l.j.k.k.k.j.j.j.0.9.z.l.9.`.D...cXSX.Xu.l./.j.^.j.",
"9.9.k.9.j.j.^.=XlXrXrXqXkXzXkXkX'.&Xb.+.m.E.mX#X X=X=X/.j.z.j.n.z./.j.j.0.0./.0.l.l.z.l.].].].].XX(.k.3.{.3.3.,XSXrX6.z.0./././.",
"`.6.9.z.7.j.7.7.9.9.0.9.8.8.0.4.c.r.q.Q t.E.aXE.u.0.5.5.7.7.7.j.j.5.7.7.0.0.8.9.9.6.u.*X*X*X*X`..XkXvXnXf.! d :XnXnXn.j.0.0./.0.",
"GXqX4.r.6.7.8.j.7.9.8.7.0.8.8.8.D.' q.Y $.$XP.rXr.4.z x 6.7.7.j.0.8.^.[.].].).^.^.).rX).'._.).).;XxXpXFXMXu d y.p.pXc.6.1.8.8.0.",
"DXDXc.}.z.T 1.5.5.8.9.7.8.8.7.0.q.* N N G E.%.aXd.m z z T n.7.8.5.0.8.0./.].zX*X XvXBXBXb.+X'. XxXoXcXCXHXbXo ! } !.}.T x 1.8.8.",
"mXCXrX=Xk.& z 7.7.5.4.4.8.0.5.9.P y F B G Y.G $XD.+ M z x 2.8.8.5.0.8.8.8.8.n.r.vX;XU.GX}.'  XxX$Xp.aXCXZXGXW., p.$X|.z z K 0.8.",
"+XMXcXD.Y z k 8.].).j.5.4.' ' 6.> v B y G Y.G f.<X% y z k 1.8.5.5.4.8.8.4.1.6.k.|.D.W MXmXF B.+XN.m.:XbX,XSXCXQ $.E.T.6 z z 8.1.",
"E J.bXR.> c k K '.[.].].`.'.`.6.c y V p : f.O.Q cXH r c z 1.5.1.5.1.4.1.8.4.1.k.u.G R >XmXx.D.u.O.A sXsX:XbXFXcX..C.uXF l n 1.1.",
"SXfX>XP.@ n z z (. X[.vXDXvXb.J v v Z b > d.+.Q iXt.% c k K 1.1.2.1.x x 4.1.4.j.J +.X.uXiXaXi.d.O.A fXfX%.%.NXSXX.s.iX+.* n T 2.",
"SXFXHXM.@ l l l 2.Y b.pXDXSXp.u v v v B > L y.! B.N.l l l n Y l.1.n k K 1.1.2.6.P +.H P.Y...B w.f.+.$XsX%.-.:XMX-.%.P.<X@ c M 6.",
"ZXfXFXMXV : m k m Q U.i.BXcXuX, v v B y * R t.| M.Y.L l m k q.BX;X. K k 1.2.6.K 0 F G aXf.b B I ..G oXE.%.%.,X,X:X%.=.nX> y b ;X",
"ZXZXNXFXy.k l l n v.y.y.SXY.fX, > m & > l V %.p.p.:XY.@ v y |.-XCX& v k k L r.m v y y Y.H b > B F : T.>XW.M.,XW.,Xm.E $XV + Q  X",
"sXfXfXbXxX& l l M 3.L ! t.M.,Xm.% F c c v B X.m.p.m.! d , W t.f.mXN.+ l m k q.c v > G ..N v > B F Z $.$XE W.W.,XW.sX! P.i.% b.P ",
"I.iXBXpXvXB & M L L l l d ! d M.V , , , , , E W.E d d d d V N y.mX<X+.<XDXoXy y u : W W L : l v * B G N.%.P.W.W.,XfXX.m.>X, w.> ",
"mXuXpXpXmX.X+ & 3.m l * B.E t ,X%.@ L <XcXQ , ,X%.; :X<., L B G N.@XcXX.SXGX@.r u > Q c c l l > % v b f.E ,X$.:X~.,XB.! iXi.F N ",
"$XR.$X!.pXnXU e.L l * o Q y.s ,XP.%.MXbXFXHX%.P.E ; N.,XB l > b t.aXm.D MXFXMX, @ R Q k c m * c & P y d.A J.M.M.%.fXsXR E.oX: p ",
"P.L.-XT.@.mX|.v.y.3.* o Q y.d p.<XbXW.:XCXSXFX,Xd X Q iXL > l & N.oX%.m.!.BXSXoXo 3.l l L l * & v % u y.A W.p.%.-.W.NXX.=.o.u R ",
"<X<XE.<Xi.oXnXw.U q.+ . b +...*.bXW.p.Q fXfXSXCX@ X , cXL l l c U.t.L.X.p.NXbXmX> Q c c c * + n c & v W X.M.%.m.%.<.mXm.%.t.@XaX",
">XxX@X,XE.N.mXv.Q m . . b i.g.oX,XM.Q %.:XdXuXbXX X : <X3.* c Y 3.w.+.V m.MXuXaX#.v v & m K & c v % @ F R %.P.m.p.M.aXNXW.aXCXaX",
"W.<XY.,X>XN.nX<Xw.* + . b U.$X#X{.q.M.t.BXW.cXy.. @ . N.B., , +.B L N W A bXaX<XvXI q.q.(.c.e.r.M % o +.d.W =.M.E X.M.MX$XcXcX<X",
"M.oXQ B.M.t.oX<X+   . .   I N.' P P B.w.$Xg.cXA . o . d $X- G w.B n P N.t.mXiX-XMXt.e.d.B.U q.3.d.U + Q B.W X.=.! y.,X,X>Xp.W >X",
"Q W.$.Y.y.%.y.aX..r s p u x.P & k K I 6 i.Y.f.G , , u Q W.d G B B L G 3.y.<XE.E.BXT.F U 3.3.Y 2.q.e.O.B.oXY.P.W.f.W ,X,Xf.t s oX",
"oX,XQ f.Q f.R <XT.s D Z X.I + o . *   X   X : G Q G R $.@X! V v n l B V - M.%.M.cXmXo.d.w.n.n.b.q.w.d.|.U.<XY.t.t.M.N.t.G V I t.",
"B.:XQ M.Q N.$.aXiX$ h d X.% . + + o o X @ o o @ d A V i.!.p.b B & m l V - p.$.Q M.MXi.q.Q 3.L L c b O.B.#.E.t.X.$.p.t.R A : @.I ",
"W.m.R p.M.oXE.oXbXt t E H X o   . . o X o o o o , V R =.P.@.B M B c v v - +.P.%.Q bXm.: > > * m & b q.B.W oXy.y.p.%.W W I $.Y.O.",
"a.H.E.m.Q.E.oXy.bXD r W %.@ $ * % : * , : : @ @ u A #.L.N.W V u B y C y + q.|.$.! W.sXs v m n M k v +.B.E W.y.W y.@.h.g.Y xX<XoX",
"i.@.N.R w.L.$XB.,XA : V X.; A D D G I G L R , : % - X.I.f.d b v G v J c * F B.y.%.-.<Xd v c v l & > W J.%.J.m.w.x.Y.g...Q &XB.<X",
"x.Q t.Q ..F B.<X>XG X r o.; C G A s A A V ! , , , $ o.H.H I * L M m r.Y K Y oXQ M.%.%.m., B l l m y h <. .5XK.;.+XL.+.I w.-XXX<X",
"f.B.t.$.W N f.Y.t.V @ p -.; Z F Z A A h A A y @ - X -.aXb > l Y e.b.c.r.n.b.oXf.=.W.! iXs b > v c b ) :.5X6X6X4X9Xu.C O.+.x.x.+.",
"y.f.Q f.w.B Q P.E t X , -.; Z F F W Z Z h D u @ , @ E aX3.v r.c.n.3.n.2.3.r.B.$X@.@X!.,Xy.- v & m c h 9X5X,.>.3X7XqXS i p +.u...",
"I y.Q y.@.I H P.P.d @ V -.; h G G G Z Z h g r % , @ Q bX|.e.(.r.3.n.3.3.3.3.U XXB.<XaXaX<Xy.3.2.K m 7XS.[ _ / / [ 3XF.i I E.o.i.",
"+...R W f.X.W $.P.t b ! Q t V G s % r 9 g ) 3 $ d ! ! fXiXt.3.6.3.q.2.3.b.b.w.U.XXB.oXoXbXf.' b.w.@.[ ` _ w 0 9 w _ F.h =.M.E M.",
"t.X.A H I.o.f.f.iX, d W Q - b F $   # # ) S.g O a d -.:XsXP.q.e.q.e.b.v.v.w.i.rXoXoX,XE W.p.O a # O Z._ w 6 z 0 z ( &.g J.X.y.! ",
"y.w.u H m.H.P.B.uXd ; s | - N r X   1 &.5X8X7XC 6 t -.~.:X<.$.w...d.e.Q y F F U.g.|.M.E K.9X,./ O q ] w 7 5 z z 5 C  .o.I.A Q b ",
"Q f.G p i.i.| ..=.=.$ ; o.3 a 3 X O Z.K.>.,.S.' + X -.<.~.!.A s & 6 * M i r @.f.W M.p.E hX8XgX2X>.qX) 1 5 0 0 = 9 ( g o.L.G W V ",
"Q t.O.H i.u.V.K.:. .O 3 K.,.:.Z.O h qX` ~ ^ ( 0 6 $ E M.M.iXW 6 % O % J % 6 B Q L y.P.R Z.S.A.1X4XVX] 1 c 0 = = q ^ ;.h I C m M ",
"G w.S &.C. .qXdX8X,.4 4 ,.6X8X9Xa ] &.w ( q 0 0 # $ -.m.%.O...7 S.;.( ( O   F G , 3.B.p.' 2 ^ / { 6XA. .< % & ' ' F.qXA.C M F z ",
") ' Z.F.S.&.F.S.5XgX/ 4 6X1X[ ;.9 # 0 i 9 0 5 & : % X.g.6 g _ 1XjX6XyX>.` ^ wXI.d , m.#.Q b 6 6 4 [ 7XVXtXS O.' Z.7X4XyXqXz.z.6.",
"i ] Z.] _ ( 4 ~ ;.5Xg  .5X[ w q < # 6 0 O 0 M o u t X.) &.;.4X0XyX6X6X6X;.:.h @.NX=.) a.u.i & # ( G.F.yXgX) i &.&.` _ ;.7XF.6.e.",
"u.Z.f q < q ` 2 ^ ^ g ' ( i 2 5 + O % # X d t : t ! -.K.yXyX0X1X1X{ { 7X' C y h !.hX5X7X&.9 J J = w ] S.qX( F.tX4 4 2 q ^ ` f 4 ",
"mXwX8 < q 7XQ.2 q 1 g S i 6 0 %   * + * X u u @ j d  .dX6X0X[ { / ~ q w J v y R )  .;.) ^ 2 C #.= 0 9 ) u.( 3XtX2 < 8 7 2  .5X9X",
"wXNXgX3 w qX( 6 1 a a H p # * $ + + o * o , d @ t h | 8XS./ w e w 1 3 C m c y p.o.g q e 3 g 6 0 = C 5 w ] ^ ] ] w ( w w e _ 3X0X",
"=.!.bXQ.Q.G.( i 6 1 F G +.r p   + . + o . B d $ a h | =.( e w 5 5 i % I % y a o.&.Q.F.w :.' g ) w 1 ` ( ( 4 ] q ( w x ( ( ~ 3X3X",
"<.-.:.wXG.u.qX).r.0 v W ..* b a @ > r t , b y % j ^ ) &.1 1 9 C x = G Z O f &.V.g 7XA.w < &.rXtX9X` ( S.( 2 < w w e [ tX_ e ] ( ",
"K.=.K.&.2 w ' ' F.i y ' @.r S a h t a | F Z % O j j ` ^ w w 7 ( w f } O  .5XhXwX4 ] >.4 < g wXtX9XyX_ 7XqX1 ( ( < ~ 0X0X3Xe e ( ",
"gX .hX9X>._ 4 _ ~ < 4 9XhX3X .^ ^ ; h ) g ` ^ 7X .4  .>.8X5X4 ^ 4X6X/ ^ 0X>.[ tX .S.yX~ a 6 S F.A.[ _ G.VX~ ] [ 3X>.[ >.6X>.~ 1X",
" .2X3X6X3X3X3XyX3X;. .eXS.,. .5X&.O 3 &.:.dX9XqX9X,.4XeX9X,.` A.6X6X` ` ;./ ^ Z.;.;.gX/ 2 ' 8 Z.7XtX7X~ >.8X>.>.eX[ ^ ^ ` 6X0X2X",
"j f f ^ ^ / A.9XS.>.;.` w 2 ( ] V. . .;.) ] ` _ A.A.;._ _ ( &.( ` ( ) ^ 2 f f 2 e < ` G.] wX( S.G.S.qX` 3X4XA.G.&.w 8 8 7 (  ._ ",
"6 1 6 7 e 4 w _ ` ( f 2 q 5 5 8 g 8 a 2 7 7 7 w 4 4 q e 8 7 < w w 9 7 6 i 1 1 7 a 1 e ) G.;._ ( f e 4 ` ~ w e q 5 0 6 5 5 < 2 q ",
"r g % 6 i 9 9 9 b i 6 1 3 3 h g 6 y 9 6 0 9 5 6 9 i 8 6 2 i i 9 0 0 0 C i * 6 a g 3 i 8 2 5 q 5 7 7 6 2 1 1 1 8 0 0 i g g C J 0 ",
"' H H C C J i r 6 9 M S ) ..*.*.u.#.w.e.O.F r C J ' H J J ) ' C z 0 i S ' ..D H &.#.) Z g r c C i 1 8 g g 5 C @.h.' ' &.#.' ' H ",
"p.*.a.g.i.u.) g S h D V.C.R.C.C.C.V.V.V.C.s.} } ..s.g.C.s.a.C.a.) | o.m.@.I i.V.C.V.V.:.=.*.w.' S ( ' @.@.@.*.H.C.V.Z.D.C.R.s.*.",
"Z J ..C.H.V.V.H.s.&.| V.C.C.g.C.V.*.V.%.o.R.H.H.H.m.H.=.#.@.*.H.H.M.M.J.o.' L.R.*.*.a.*.*.s.I.C.*.i.@.D o.H.I.s.=.*.w.@.i.m.H.J.",
"....' s.H.s.s.s.R.C.V.=.a.a.H.R.} g ) ) ) o.V.V.V.s.R.*.h h | J.J.M.J.m.h.R.g.x...Z Z Z | o.=.H.C.H.s.o.*.m.V.o.o.H h h ' ..o.x.",
"C.H.H.a.*.=.@.=.a.V.*.h h | H.H.s.} D D h *.R.C.C.C.V.C.M.V.V.:.V.m.s.%.g.s.@.T.s.D X.o.h E J.V.x.g.a.a.R.V.s...F R | | R h D a.",
":.H.J.o.a s Z } ) p.C.*.=.H.J.s.J.m.J.H.=.s.H.o.o.@.p.V.H.I.~.J.H.:.C g ) s } J.I.!.~.J.E.I.H.V.o.R E } M.J.Q.J.H.=.o.@.H.=.a.V.",
"!.I.R.!.M.a.i.R ' C.E.wX!.!.!.!.!.!.W.!.!.Q.I.*.h A g.I.!.,X!.,X!.Q.Z.a.*.=.I.!.:X!.:X:XwX!.E.H.R ' o.=.!.!.hX!.!.=.| =.I.K.J.Q."
};
