/* XPM */
static char *_f1d79206bcf467fc5eb75f3907dedbf[] = {
/* columns rows colors chars-per-pixel */
"64 64 256 2 ",
"   c black",
".  c #010101",
"X  c #020202",
"o  c gray1",
"O  c #040404",
"+  c gray2",
"@  c #060606",
"#  c #070707",
"$  c gray3",
"%  c #090909",
"&  c gray4",
"*  c #0B0B0B",
"=  c #0C0C0C",
"-  c gray5",
";  c #0E0E0E",
":  c gray6",
">  c #101010",
",  c #111111",
"<  c gray7",
"1  c #131313",
"2  c gray8",
"3  c #151515",
"4  c #161616",
"5  c gray9",
"6  c #181818",
"7  c #191919",
"8  c gray10",
"9  c #1B1B1B",
"0  c gray11",
"q  c #1D1D1D",
"w  c #1E1E1E",
"e  c gray12",
"r  c #202020",
"t  c gray13",
"y  c #222222",
"u  c #232323",
"i  c gray14",
"p  c #252525",
"a  c gray15",
"s  c #272727",
"d  c #282828",
"f  c gray16",
"g  c #2A2A2A",
"h  c gray17",
"j  c #2C2C2C",
"k  c #2D2D2D",
"l  c gray18",
"z  c #2F2F2F",
"x  c gray19",
"c  c #313131",
"v  c #323232",
"b  c gray20",
"n  c #343434",
"m  c #353535",
"M  c gray21",
"N  c #373737",
"B  c gray22",
"V  c #393939",
"C  c #3A3A3A",
"Z  c gray23",
"A  c #3C3C3C",
"S  c gray24",
"D  c #3E3E3E",
"F  c #3F3F3F",
"G  c gray25",
"H  c #414141",
"J  c gray26",
"K  c #434343",
"L  c #444444",
"P  c gray27",
"I  c #464646",
"U  c gray28",
"Y  c #484848",
"T  c #494949",
"R  c gray29",
"E  c #4B4B4B",
"W  c #4C4C4C",
"Q  c gray30",
"!  c #4E4E4E",
"~  c gray31",
"^  c #505050",
"/  c #515151",
"(  c gray32",
")  c #535353",
"_  c gray33",
"`  c #555555",
"'  c #565656",
"]  c gray34",
"[  c #585858",
"{  c gray35",
"}  c #5A5A5A",
"|  c #5B5B5B",
" . c gray36",
".. c #5D5D5D",
"X. c gray37",
"o. c #5F5F5F",
"O. c #606060",
"+. c gray38",
"@. c #626262",
"#. c gray39",
"$. c #646464",
"%. c #656565",
"&. c gray40",
"*. c #676767",
"=. c #686868",
"-. c DimGray",
";. c #6A6A6A",
":. c gray42",
">. c #6C6C6C",
",. c #6D6D6D",
"<. c gray43",
"1. c #6F6F6F",
"2. c gray44",
"3. c #717171",
"4. c #727272",
"5. c gray45",
"6. c #747474",
"7. c gray46",
"8. c #767676",
"9. c #777777",
"0. c gray47",
"q. c #797979",
"w. c gray48",
"e. c #7B7B7B",
"r. c #7C7C7C",
"t. c gray49",
"y. c #7E7E7E",
"u. c gray50",
"i. c #808080",
"p. c #818181",
"a. c gray51",
"s. c #838383",
"d. c #848484",
"f. c gray52",
"g. c #868686",
"h. c gray53",
"j. c #888888",
"k. c #898989",
"l. c gray54",
"z. c #8B8B8B",
"x. c gray55",
"c. c #8D8D8D",
"v. c #8E8E8E",
"b. c gray56",
"n. c #909090",
"m. c gray57",
"M. c #929292",
"N. c #939393",
"B. c gray58",
"V. c #959595",
"C. c gray59",
"Z. c #979797",
"A. c #989898",
"S. c gray60",
"D. c #9A9A9A",
"F. c #9B9B9B",
"G. c gray61",
"H. c #9D9D9D",
"J. c gray62",
"K. c #9F9F9F",
"L. c #A0A0A0",
"P. c gray63",
"I. c #A2A2A2",
"U. c gray64",
"Y. c #A4A4A4",
"T. c #A5A5A5",
"R. c gray65",
"E. c #A7A7A7",
"W. c gray66",
"Q. c #A9A9A9",
"!. c #AAAAAA",
"~. c gray67",
"^. c #ACACAC",
"/. c gray68",
"(. c #AEAEAE",
"). c #AFAFAF",
"_. c gray69",
"`. c #B1B1B1",
"'. c #B2B2B2",
"]. c gray70",
"[. c #B4B4B4",
"{. c gray71",
"}. c #B6B6B6",
"|. c #B7B7B7",
" X c gray72",
".X c #B9B9B9",
"XX c gray73",
"oX c #BBBBBB",
"OX c #BCBCBC",
"+X c gray74",
"@X c gray",
"#X c gray75",
"$X c #C0C0C0",
"%X c #C1C1C1",
"&X c gray76",
"*X c #C3C3C3",
"=X c gray77",
"-X c #C5C5C5",
";X c #C6C6C6",
":X c gray78",
">X c #C8C8C8",
",X c gray79",
"<X c #CACACA",
"1X c #CBCBCB",
"2X c gray80",
"3X c #CDCDCD",
"4X c #CECECE",
"5X c gray81",
"6X c #D0D0D0",
"7X c gray82",
"8X c #D2D2D2",
"9X c LightGray",
"0X c gray83",
"qX c #D5D5D5",
"wX c gray84",
"eX c #D7D7D7",
"rX c #D8D8D8",
"tX c gray85",
"yX c #DADADA",
"uX c gray86",
"iX c gainsboro",
"pX c #DDDDDD",
"aX c gray87",
"sX c #DFDFDF",
"dX c gray88",
"fX c #E1E1E1",
"gX c #E2E2E2",
"hX c gray89",
"jX c #E4E4E4",
"kX c gray90",
"lX c #E6E6E6",
"zX c #E7E7E7",
"xX c gray91",
"cX c #E9E9E9",
"vX c #EAEAEA",
"bX c gray92",
"nX c #ECECEC",
"mX c gray93",
"MX c #EEEEEE",
"NX c #EFEFEF",
"BX c gray94",
"VX c #F1F1F1",
"CX c gray95",
"ZX c #F3F3F3",
"AX c #F4F4F4",
"SX c gray96",
"DX c #F6F6F6",
"FX c gray97",
"GX c #F8F8F8",
"HX c #F9F9F9",
"JX c gray98",
"KX c #FBFBFB",
"LX c gray99",
"PX c #FDFDFD",
"IX c #FEFEFE",
"UX c white",
/* pixels */
":X:X:X:X:X:X:X:X:X:X:X:X:X:X:X:X:X:X:X:X:X:X:X:X:X:X:X:X:X:X:X:X:X:X:X:X:X:X:X:X:X:X:X:X:X:X:X:X:X:X:X:X:X:X:X:X:X:X:X:X:X:X:X:X",
"~.:X~.|.|.|.|.|.~.|.|.|.|.|.|.~.|.:X|.|.|.|.|.|.|.~.~.~.~.~.~.|.|.|.|.|.|.|.|.|.~.~.~.~.~.~.~.|.|.|.|.:X:X:X|.|.~.~.|.|.|.|.|.:X",
":XjXjXkXkXkXkXkXkXkXkXkXzX|.|.~.jXjXkXkXkXkXkXkXkXkXkXkXkXkXkXkXkXkXkXkXzX|.:X~.jXjXjXjXkXkXkXkXkXkXkXkXkXkXkXkXkXkXkXlXlXlXzX|.",
"|.U kXlXlXkXcXzXkXcXkXzXmX9X|.~.jXlXcXlXcXlXcXlXbXlXxXlXxXlXbXlXbXlXkXzXnX9X|.:XkXzXkXlXkXlXlXkXnXkXbXkXlXkXcXlXzXbXkXxXkXzXU 9X",
"~ { j.E E E E E E E E E E E E E E E E E E E E E E E E E E E E E E E E E E E E E E E E E E E E E E E E E E E E E E E E E E { { G.",
"b.7.`.b.b.s.s.s.s.s.s.s.s.s.s.s.s.s.s.s.s.s.s.s.s.s.s.s.s.s.s.s.s.s.s.s.s.s.s.s.s.s.s.s.s.s.s.s.s.s.s.s.s.s.s.s.s.s.b.b.b.G.:.`.",
"|.$XzXs.s.s.s.*.*.*.*.*.*.*.*.*.*.*.*.*.*.*.*.*.*.*.*.*.*.*.*.*.*.*.*.*.*.*.*.*.*.*.*.*.*.*.*.*.*.*.*.*.*.*.*.*.*.s.b.s.s.NXb.9X",
"|.lXbX*.s.:XzXZXZX~.nXnXnXnXnXnXnXnXnXnXnXnXnXnXnXnXnXnXnXnXnXnXnXnXnXnXnXnXnXnXnXnXnXnXnXnXnXnXnXnXzXlXjXkXs.ZXZXZXs.F b.NXZX9X",
"|.lXzX] s.zXF *.b.ZXs.] F z F F E E E E E E E E E E E E E E E E E E E E E E E E E E E E E E E E F F F F F s.ZXs.b.*.:Xs.b.NXZX9X",
"|.bXmXE *.ZX*.F *.s.5.*.] ] 5.s.] z F E E E E E E E E E E E E E E E E E E E E E E E E E E E E 5.zXF.F E ] ] ] b.] z zXb.s.ZXZX9X",
"|.|.9Xz ] ZX*.] F *.s.s.*.*.~.vXb.] z z F F E E E E E E E E E E E E E E E E E E E E E E F F 5.F.cXnX*.] ] *.*.] z s.ZXs.*.sXsX9X",
"~.:X:Xz E ~.b.*.E F *.s.s.5.nXvXvXvXs.] z F F F F F E E nXb.~.nXnXnXnXU.S.f.E E E E F F 5.F.cXvXnXnX*.*.*.*.] z F F.~.5.] sX9X9X",
"jXkXkXE z ZXs.*.] E F *.b.F.|.MXnXnXvXvXs.] E E E E E E nXnXnXnXnXs.nXU.U.S.7.E E E 5.F.cXvXnXnXnX|.*.*.*.] F F ] s.ZX*.] NXNXkX",
"lXcXcXE z nX*.5.*.] E F.vXb.F.|.MXMXnXnXvXvXvXs.5.E E E b.nXnXnXnXnXnXU.5.E E 5.F.cXcXvXvXnXnXnX|.b.b.nXF.] F ] 5.s.ZX] E NXNXlX",
"cXzXcXE z lX] *.5.*.F.zXcX|.b.F.|.MXMXMXMXjXvXvXvXb.5.E E nXnXnXnXnXnX5.E 5.F.cXcXvXjXnXnXnXMX|.b.~.zXcXcXF.] *.s.5.nX] E NXNXxX",
"nXzXzXE E xXE *.5.5.MXcXzXcXvX|.F.|.:XMXMXzXMXvXvXvXvXE E nXnXnXnXnXnXE E vXcXcXvXnXzXMXMX:X|.F.|.nXcXcXzXzX*.5.s.5.nX] E NXNXbX",
"zXcXcXE E cXF ] *.5.MXMXcXzXcXcXvX|.~.:XNXNXMXMXMXvX~.E E nXnXnXnXnXnXE E ~.MXMXMXMXMXMX:X|.|.MXnXvXcXzXzXzX5.s.5.5.nX] E NXNXbX",
"nXzXmXE E nXz E ] *.|.MXMXcXzXzXcXvXMXNXNXNXNXMXMX5.E E b.nXnXnXnXnXnXb.E E 5.MXMXMXNXNXNXMXMXnXvXcXzXzXzX~.5.s.5.*.nXE E NXNXcX",
"nXlXmXE E nXz F E *.F.|.MXvXcXcXzXcXvXzXNXNXNXMX5.nXb.E nXnXnXnXnXnXnXnXE b.MX5.MXNXNXMXvXMXMXvXcXzXzXzX~.s.s.5.5.] nXE E NXNXnX",
"ZXVXVXE E nXz z F.nXb.~.~.|.vXcXcXzXvXjXnXNXNXMXnXMXnXE E nXnXnXnXnXnXE E MXMXMXMXMXMXvXzXnXvXcXcXzX~.s.F.|.|.F.*.] nXE E ZXNXZX",
"9X9X9XE E nXE z vXnXMX|.~.~.~.|.cXcXzXvXjXnXnXnXMXnXMXs.F.nXnXnXnXnXnXF.s.MXMXMXMXMXMXzXvXvXcXcX~.5.s.F.|.NXNXMX*.] nXE E sXsX9X",
"~.~.|.E E nXE z cXvXnXMXMXNX:X|.|.~.F.vXvXvXvXMXMXMXnXnXnXnXnXnXnXnXnXnXMXMXMXMXMXMXnXnXvX~.F.5.s.~.nXMXNXNXNXMX] ] nXE E sX9X9X",
"~.jXjXF F bXF E cXcXnXnXMXNXNXNXMXMXvXfXvXvXvXMXMXnXnXnXnXnXnXnXnXnXnXnXMXMXMXMXMXnXvXvXfXvXvXvXnXnXMXNXNXNXNXvX] ] nXE E NXNX9X",
"~.jXcXz z xXz F vXcXvXnXMXMXNXNXNXMXMXjXvXvXvXnXnXnXnXnXnXnXnXnXnXnXnXnXnXMXMXnXnXvXvXvXfXvXvXvXnXMXMXNXNXNXMXvX*.] bXE E NXZX9X",
":XjXlXF F cXF *.b.vXcXnXnXMXNXNXMXNXMXzXvXvXnXnXnXnXnXnX~.~.F.b.b.F.~.~.nXnXnXvXvXvXvXvXjXvXvXnXMXMXNXNXNXNXMXb.*.] bXE E NXZX9X",
"|.lXmXE E bXE *.*.b.|.vXnXMXMXMXnXMXnXvXzXnXnXnXnXnXnXnXF.zXfXzXzXfXzXF.nXnXvXvXvXvXvXjXvXvXnXMXMXMXNXNXNX|.b.*.*.E cXE E NXZX9X",
"|.lXlXE E nXE nXvX|.F.b.b.F.F.~.|.#X5XMXnXvXjXvXnXnXnXnXs.fXzXzXzXzXfXs.nXvXnXvXvXjXvXvXvX~.~.|.#X:X#X|.~.F.|.cXzXF xXF F NXZX9X",
"~.lXnX] ] nX] nXnXvXvXvXvXnXMXnXMXnXMXnXMXnXvXjXzXnXnXnX~.zXzXzXzXzXzX~.nXnXvXzXjXvXvXvXvXnXMXMXMXMXNXMXMXnXvXcXzXz xXz z NXZX9X",
"|.kXzX] ] mX] nXnXnXvXvXvXnXnXMXnXMXnXMXnXnXnXnXnXnXnXnXs.fXzXzXzXzXfXs.nXvXnXvXnXvXvXvXnXMXMXMXMXMXMXMXnXvXvXcXcXF xXF F NXZX9X",
"|.zXxX*.*.VX*.nXnXvXnXvXnXvXnXnXnXnXnXnXnXnXnXnXnXnXnXnX~.zXfX|.zXfXzX~.nXnXvXnXvXvXvXnXnXMXMXMXMXMXMXMXnXnXcXzXcXF cXF F NXZX9X",
"|.|.:X] ] NX] nXnXnXvXnXvXnXnXnXnXnXnX~.nXnXnXnX~.nXnXnXs.~.zX|.zXzX~.s.nXvXnX~.vXnXnXnX~.MXMXMXMXMXMXMXnXnXcXcXnXE bXE E sXsX9X",
"~.~.~.] ] mX] F.nXnXnXnXnXnXnXnX|.b.nXnXnXnXnX~.nXnXnXnX~.s.s.~.~.s.s.~.nXnXnXvX~.nXnXMXnXMXb.|.MXMXMXnXnXvXcXvXF.E nXE E sX9X9X",
"lXlXlXE E nXE *.F.nXnXnXnX|.b.b.nXnXnXnXnXnXb.nXnXnXnXnXnXnX~.s.s.~.nXnXnXnXvXnXnXb.nXnXMXMXMXnXb.b.|.nXnXvXvXF.*.E nXE E NXNXlX",
"zXlXzXE E nXE E E *.*.*.*.b.nXnXnXnXnXnXnXb.nXnXnXnXnXnXnXnXnXnXnXnXnXnXnXnXnXnXnXnXb.MXnXMXMXMXMXnXb.*.*.*.*.E ] ] mX] ] NXNXzX",
"zXbXcXE E nXE E *.*.b.nXnXnXnXnXnXnXnXnXb.nXnXnXnXnXnXnXnXnXnXnXnXnXnXnXnXnXnXnXnXnXnXb.MXnXMXnXMXnXvXvXvXb.*.*.*.*.NX*.*.NXNXnX",
"cXbXzXE E nXE E nXnXnXnXnXnXnXnXnXnXnXb.nXnXnXnXb.nXb.nXnXnXnXnXnXnXnXnXnXb.nXb.nXnXnXnXb.MXnXMXnXvXvXvXvXvXnXnX5.5.VX5.5.NXNXnX",
"zXcXbXE E nXE E nXnXnXnXnXnXnXnXnXnXb.nXnXnXnXF.*.b.nXnXnXnXnXnXnXnXnXnXnXnXb.*.F.nXnXnXnXb.nXnXnXnXvXvXvXvXnXnX*.*.NX*.*.NXNXcX",
"zXcXbXE E bXE E b.nXnXnXnXnXnXnXnXb.nXnXnXnXnX*.nXnXnXnXnXnXnXnXnXnXnXnXnXnXnXnX*.nXnXnXnXnXb.nXnXvXvXvXvXvXnXb.*.*.mX*.*.NXNXnX",
"nXnXcXE E bXE E *.nXnXnXnXnXnXnXb.nXnXnXnXnX*.nXnXnXnXnXnXnXnXnXnXnXnXnXnXnXnXnXnX*.nXnXnXnXnXb.nXnXvXnXvXnXnX*.] ] mX] ] NXNXnX",
"ZXZXVXE E cXE E E b.nXnXnXnXnXb.nXnXnXnXnXnXnXnXnXnXnXnXnXnXnXnXnXnXnXnXnXnXnXnXnXnXnXnXnXnXnXnXb.nXnXnXvXnXb.E E E mXE E NXNXZX",
"9X9X9XF F cXF F F E b.nXnXnXb.nXnXnXnXnXnX*.nXnXnXnXnXnXnXnXnXnXnXnXnXnXnXnXnXnXnXnX*.nXnXnXnXnXnXb.nXnXnXb.E E E E nXE E sXsX9X",
"~.|.~.z z zXz z z E E *.*.*.*.nXnXnXnXnX*.E fXnXnXnXnXnXnXb.nXnXnXnXb.nXnXnXnXnXnXfXE *.nXnXnXnXnX*.*.*.*.E E E E E nXE E sX9X9X",
":XjXkXF F xXF F F E E E E E *.*.nXnXnX*.E E E b.nXnXnXnXnXnXnXnXnXnXnXnXnXnXnXnXb.E E E *.nXnXnX*.*.E E E E E E F F cXF F NXNX9X",
"~.kXzXE E xXE E E E E E E s.U.U.s.E E E E s.U.nXnXnXnXnXnXnXnXnXnXnXnXnXnXnXnXnXnXU.s.E E E E s.U.U.s.E E F F F F F cXF F NXZX9X",
"|.kXzXE E cXE E E E E E E U.U.U.U.U.U.U.U.U.U.(.(.nXnXb.E nXnXnXnXnXnXE b.nXnX(.(.U.U.U.U.U.U.U.U.U.U.F F F F z z z xXz z NXZX9X",
"|.kXcXE E cXE E E E E E E E s.F.(.U.U.U.U.(.(.s.E E E E nXnXnXnXnXnXnXnXE E E E s.(.(.U.U.U.U.(.F.s.E E E F F F F F xXF F NXZX9X",
":XkXzXE E bXE E E E E E E 5.U.U.U.U.U.U.U.U.U.U.E E E nXnXnXnXnXnXnXnXnXnXE E E U.U.U.U.U.U.U.U.U.U.5.E E E E E F F cXF F NXZX9X",
"~.kXzX] ] nX] ] ] ] E E E U.(.(.5.U.U.(.E 5.(.U.E s.nXnXnXnXnXnXnXnXnXnXnXnXs.E U.(.5.E (.U.U.5.(.(.U.E E E E E E E nXE E NXZX9X",
":XkXzX] ] nX] ] ] ] ] ] E (.s.5.E U.(.E E E E s.~.nXnXnXnXnXnXnXnXnXnXnXnXnXnX~.s.E E E E (.U.E 5.s.(.E E E E E E E nXE E NXZX9X",
"~.zXmXE E nXE E E E E E E E E E E U.(.E E s.~.nXnXnXnXnXnXnXnXnXnXnXnXnXnXnXnXnXnX~.s.E E (.U.E E E E E E E E E E E nXE E ZXZX9X",
":X|.9XE E nX*.E E E E E E E E E E 5.U.E nXnXnXnXnXnXnXnXnXs.nXnXnXnXs.nXnXnXnXnXnXnXnXnXE U.5.E E E E E E E E E E *.nXE E sXsX9X",
"~.:X~.E E nXs.E E E E E E E E E E E E E s.~.nXnXnXnXnXF.E nXnXnXnXnXnXE F.nXnXnXnXnX~.s.E E E E E E E E E E E E E s.nXE E sX9X9X",
"kXkXkXE E s.nXs.*.E E E E E E E E E E E E E s.~.nXnXF.E s.nXnXnXnXnXnXs.E F.nXnX~.s.E E E E E E E E E E E E E *.s.nXs.E E NXNXlX",
"bXzXNXs.E E s.nXnXnXs.*.E E E E E E E E E E E E E E E E nXnXnXnXnXnXnXnXE E E E E E E E E E E E E E E E *.5.nXnXnXs.*.E s.NXNXnX",
"zXbXbXNXs.E E E *.s.nXnXnXnXs.*.E E E E E E E E E E E E F.nXnXnXnXnXnXF.E E E E E E E E E E E E *.s.nXnXnXnX5.*.E E E s.NXNXNXVX",
"zXbXNXNXNX~.s.E E E E E *.s.nXnXnXs.*.E E E E E E E E E E F.nXnXnXnXF.E E E E E E E E E E *.s.nXnXnXs.*.E E E E E s.~.NXNXNXnXcX",
"bXxXNXNXNXNXNX~.s.E E E E E E *.s.nXnXnXs.*.E E E E E E E E F.nXnXF.E E E E E E E E *.s.nXnXnXs.*.E E E E E s.~.NXNXNXNXNXmXnXzX",
"mXzXbXzXmXNXmXNXNXNXNX~.s.E E E E E *.s.nXnXnXs.*.E E E E E E F.F.E E E E E E *.s.nXnXnXs.*.E E E E E s.~.NXNXNXNXNXNXnXNXzXnXzX",
"mXzXbXbXmXxXxXmXNXNXNXNXNXNX~.s.E E E E E *.s.nXnXnXnXs.*.E E E E E E *.s.nXnXnXnXs.*.E E E E E s.~.NXNXNXNXNXNXNXnXzXnXNXmXzXVX",
"bXxXNXzXmXmXcXmXbXbXzXNXNXNXNXNXNXZX~.s.E E E E E *.s.nXnXnXs.*.*.s.nXnXnXs.*.E E E E E s.~.ZX9X9X9XNXNXNXNXzXNXzXnXzXnXzXmXzXnX",
"VXVXVXVXVXVXVXVXVXVXVXVXVXVXVXVXZXZXsXsX9X~.s.E E E E E *.s.nXnXnXnXs.*.E E E E s.~.VXVXVXZXZXsX9X9XNXZXZXVXVXVXVXVXVXVXVXVXVXVX",
"9X9X9X9X9X9X9X9X9X9X9X9X9X9X9X9X9X9X9XsXsXsXsXsX9X~.s.E E E E E E E E E E s.~.sXsXsXsXsX9XsXsXsX9X9X9X9X9X9X9X9X9XsXsXsXsXsX9X9X",
":X~.:X~.:X:X:X|.|.|.|.|.~.:X:X:X:X9X9X9X9X9X9X9XsXsXsXsXsX~.s.E E s.~.9XsXsXsXsXsX9X9X9X9X9X9X9X9X:X:X|.|.~.|.|.|.|.#X:X#X|.|.|.",
"~.~.~.~.~.~.~.~.~.~.~.~.~.~.~.~.~.~.~.|.:X:X:X9X9XsXsXsXsXsXsXsXsXsXsXsXsXsXsXsXsXsX9X:X:X:X|.|.~.~.~.~.~.~.~.~.~.~.~.~.~.~.~.~."
};
