/* XPM */
static char *_599611281026[] = {
/* columns rows colors chars-per-pixel */
"64 64 196 2 ",
"   c #36222F",
".  c #39232F",
"X  c #3E292F",
"o  c #372430",
"O  c #3A2632",
"+  c #3E2934",
"@  c #3F2C38",
"#  c #42252E",
"$  c #43292D",
"%  c #432733",
"&  c #422C35",
"*  c #482E34",
"=  c #442E39",
"-  c #4A2E38",
";  c #4D2732",
":  c #532C33",
">  c #592C36",
",  c #502E39",
"<  c #4A3136",
"1  c #46313B",
"2  c #4B343B",
"3  c #4B343A",
"4  c #543633",
"5  c #51343B",
"6  c #59343E",
"7  c #523B3D",
"8  c #732E37",
"9  c #782F39",
"0  c #623333",
"q  c #67383A",
"w  c #7E3139",
"e  c #5F4233",
"r  c #664434",
"t  c #744D37",
"y  c #735337",
"u  c #4D3741",
"i  c #4E3943",
"p  c #4F3D48",
"a  c #503741",
"s  c #533C43",
"d  c #593E46",
"f  c #553F49",
"g  c #593F48",
"h  c #583640",
"j  c #633740",
"k  c #643C44",
"l  c #6D3F45",
"z  c #574046",
"x  c #594147",
"c  c #55424B",
"v  c #5B434B",
"b  c #5D484F",
"n  c #594751",
"m  c #5C4953",
"M  c #5F4F59",
"N  c #564650",
"B  c #5F505A",
"V  c #654246",
"C  c #6C4446",
"Z  c #62494E",
"A  c #62474E",
"S  c #7D4445",
"D  c #764646",
"F  c #745A44",
"G  c #634B52",
"H  c #6A4F54",
"J  c #604E58",
"K  c #675057",
"L  c #6B5157",
"P  c #62525A",
"I  c #6C5459",
"U  c #6F585D",
"Y  c #71595E",
"T  c #70565A",
"R  c #7F6449",
"E  c #665660",
"W  c #675962",
"Q  c #6C5B63",
"!  c #6D5F68",
"~  c #745C61",
"^  c #6F616A",
"/  c #72646D",
"(  c #7B6469",
")  c #786166",
"_  c #766871",
"`  c #7B6D75",
"'  c #7E7279",
"]  c #84353A",
"[  c #8A3A3D",
"{  c #90363F",
"}  c #9B393F",
"|  c #94383C",
" . c #984B3E",
".. c #8F513B",
"X. c #975B3D",
"o. c #84483A",
"O. c #AE553F",
"+. c #A1663F",
"@. c #843D45",
"#. c #A33D42",
"$. c #AD3F44",
"%. c #B13E43",
"&. c #884847",
"*. c #934440",
"=. c #8F4B52",
"-. c #9B4E54",
";. c #8B5358",
":. c #A84742",
">. c #B64245",
",. c #BA4A46",
"<. c #AB5046",
"1. c #AD5C45",
"2. c #AF584A",
"3. c #BA5644",
"4. c #BE5A42",
"5. c #A15358",
"6. c #89635D",
"7. c #957853",
"8. c #967745",
"9. c #BD6B49",
"0. c #BF7B45",
"q. c #855E66",
"w. c #896165",
"e. c #906268",
"r. c #82757C",
"t. c #8C7579",
"y. c #987579",
"u. c #B36761",
"i. c #BC7667",
"p. c #C5444A",
"a. c #CA464B",
"s. c #CC494C",
"d. c #C44947",
"f. c #DC4B4A",
"g. c #D74A4A",
"h. c #CB5545",
"j. c #CC564B",
"k. c #C35649",
"l. c #DC544B",
"z. c #DA5B46",
"x. c #DD4D51",
"c. c #D64B50",
"v. c #CA5C54",
"b. c #D9595B",
"n. c #EB4B4E",
"m. c #E24A4D",
"M. c #E3524B",
"N. c #ED5A4D",
"B. c #E35F47",
"V. c #EA4E51",
"C. c #E85255",
"Z. c #F45751",
"A. c #C56447",
"S. c #DD7047",
"D. c #CA6F5F",
"F. c #F6664E",
"G. c #F9694E",
"H. c #ED7647",
"J. c #FC774B",
"K. c #FB7B4B",
"L. c #F3794D",
"P. c #D96365",
"I. c #DC6C6D",
"U. c #C57767",
"Y. c #CE7879",
"T. c #D67678",
"R. c #E07073",
"E. c #BD864B",
"W. c #DB9552",
"Q. c #FA884B",
"!. c #F9A553",
"~. c #F6B559",
"^. c #C38B78",
"/. c #CE937F",
"(. c #857A81",
"). c #8B8087",
"_. c #91868D",
"`. c #948689",
"'. c #958B92",
"]. c #9A9197",
"[. c #9D9399",
"{. c #A48884",
"}. c #A39A9F",
"|. c #A69BA0",
" X c #ADA4A9",
".X c #B3A6AA",
"XX c #DF8D8E",
"oX c #D18F92",
"OX c #CB9795",
"+X c #E68F90",
"@X c #D2A18B",
"#X c #C0B9BB",
"$X c #E6CAB3",
"%X c #CDC8CB",
"&X c #D5D1D4",
"*X c None",
/* pixels */
"*X*X*X*X*X*X*X*X*X*X*X*X*X*X*X*X*X*X*X*X*X*X*X*X*X*X*X*X*X*X*X*X*X*X*X*X*X*X*X*X*X*X*X*X*X*X*X*X*X*X*X*X*X*X*X*X*X*X*X*X*X*X*X*X",
"*X*X*X*X*X*X*X*X*X*X*X*X*X*X*X*X*X*X*X*X*X*X*X*X*X*X*X*X*X*X*X*X*X*X*X*X*X*X*X*X*X*X*X*X*X*X*X*X*X*X*X*X*X*X*X*X*X*X*X*X*X*X*X*X",
"*X*X*X*X*X*X*X*X*X*X*X*X*X*X*X*X*X*X*X*X*X*X*X*X*X*X*X*X*X*X*X*X*X*X*X*X*X*X*X*X*X*X*X*X*X*X*X*X*X*X*X*X*X*X*X*X*X*X*X*X*X*X*X*X",
"*X*X*X*X*X*X*X*X*X*X*X*X*X*X*X*X*X*X*X*X*X*X*X*X*X*X*X*X*X*X*X*X*X*X*X*X*X*X*X*X*X*X*X*X*X*X*X*X*X*X*X*X*X*X*X*X*X*X*X*X*X*X*X*X",
"*X*X*X*X*X*X*X*X*X*X*X*X*X*X*X*X*X*X*X*X*X*X*X*X*X*X*XI.+X*X*X*X*X*X*X*X*X*X*X*X*X*X*X*X*X*X*X*X*X*X*X*X*X*X*X*X*X*X*X*X*X*X*X*X",
"*X*X*X*X*X*X*X*X*X*X*X*X*X*X*X*X*X*X*X*X*X*X*X*X*X*XP.n.n.b.*X*X*X*X*X*X*X*X*X*X*X*X*X*X*X*X*X*X*X*X*X*X*X*X*X*X*X*X*X*X*X*X*X*X",
"*X*X*X*X*X*X*X*X*X*X*X*X*X*X*X*X*X*X*X*X*X*X*X*X*XP.n.V.n.a.oX*X*X*XT.R.+X*X*X*X*X*X*X*X*X*X*X*X*X*X*X*X*X*X*X*X*X*X*X*X*X*X*X*X",
"*X*X*X*X*X*X*X*X*X*X*X*X*X*X*X*X! *X*X*X*X*X*X*Xb.m.a.x.$.{ @.=.=.-.c.V.C.b.XX*X*X*X*X*X*X*X*X*X*X*X*X*X*X*X*X*X*X*X*X*X*X*X*X*X",
"*X*X*X*X*X*X*X*X*X*X*X*X*X*X*X*XE *X*X*X*X*X*X5.f.V.a.:. .O.3.:.,.:.#.#.s.C.s.Y.*X*X*X*X*X*XQ *X*X*X*X*X*X*X*X*X*X*X*X*X*X*X*X*X",
"*X*X*X*X*X*X*X*X*X*X*X*X*X*X*X*XN *X*X*X*X.X;.%.V.a.] O.H.Q.A.> :.F.N.a.[ %.V.a.v.OX*X*X*X*Xp *X*X*X*X*X*X*X*X*X*X*X*X*X*X*X*X*X",
"*X*X*X*X*X*X*X*X*X*X*X*X*X*X*X*Xc Q *X*Xt.<.l.f.V.] ,.K.Q.!.t   : S.J.Z.c.8 a.m.F.z.u.*X*X*X+ *X*X*X*X*X*X*X*X*X*X*X*X*X*X*X*X*X",
"*X*X*X*X*X*X*X*X*X*X*X*X*X*X*X*XN O *X*X6.h.F.M.c.9 d.J.!.~.y   < W.Q.F.m.8 >.N.G.B.2.*X*Xp + *X*X*X*X*X*X*X*X*X*X*X*X*X*X*X*X*X",
"*X*X*X*X*X*X*X*X*X*X*X*X*X*X*X*Xc   c *X*XoXk.N.m.:.] h.L.!.W.4 8.~.L.f.@.} M.N.h.U.*X*X^ o @ *X*X*X*X*X*X*X*X*X*X*X*X*X*X*X*X*X",
"*X*X*X*X*X*X*X*X*X*X*X*X*X*X*X*XN o o B *X*X*XU.j.g.%.#.*.,.3.1.A.3.#.| >.f.h.U.*X*X*Xr.o O + *X*X*X*X*X*X*X*X*X*X*X*X*X*X*X*X*X",
"*X*X*X*X*X*X*X*X*X*X*X*X*X*X*X*Xc o O   M *X*X*X*X@XU.v.d.,.%.%.>.>.,.v.D./.*X*X*X*X' O O o @ *X*X*X*X*X*X*X*X*X*X*X*X*X*X*X*X*X",
"*X*X*X*X*X*X*X*X*X*X*X*X*X*X*X*Xn & o o   c *X*X*X*X*X*X$XD.%.{ $.D.$X*X*X*X*X*X*XW o O o & = *X*X*X*X*X*X*X*X*X*X*X*X*X*X*X*X*X",
"*X*X*X*X*X*X*X*X*X*X*X*X*X*X*X*Xm j , O O o = r.*X*X*X*X*X*X*X*X*X*X*X*X*X*X*X}.i o o o - j 2 *X*X*X*X*X*X*X*X*X*X*X*X*X*X*X*X*X",
"*X*X*X*X*X*X*X*X*X*X*X*X*X*X*X*Xn d k 6 % O o o p '.*X*X*X*X*X*X*X*X*X*X*X*XM O o o % , k k 2 *X*X*X*X*X*X*X*X*X*X*X*X*X*X*X*X*X",
"*X*X*X*X*X*X*X*X*X*X*X*Xy.*X*X*Xn s x C S h = O . 4 Z *X*X*X*X*X*X*X&X*XI 6 o O & a D D g g u *X*X*Xw.*X*X*X*X*X*X*X*X*X*X*X*X*X",
"*X*X*X*X*X*X*X*X*X*X*X*X_ J *X*Xc a s C &.h a h - &.q   = P `.^.{.! u . 4 &.- u a h D S s s u *X|.! n *X*X*X*X*X*X*X*X*X*X*X*X*X",
"*X*X*X*X*X*X*X*X*X*X*X*X_ I ( ~ ~ Q Y J 2 c x v v h 5 2 3 3 , j 6 < 2 2 - 6 g v g v u d Q I ~ ~ ) ( m *X*X*X*X*X*X*X*X*X*X*X*X*X",
"*X*X*X*X*X*X*X*X*X*X*X*XM u s s s s s u @ 1 1 2 1 + O = % = % % & & & = = o = 2 1 u @ = s s s s s i u *X*X*X*X*X*X*X*X*X*X*X*X*X",
"*X*X*X*X*X*X*X*X*X*X*X*X! o = = % @ @ O O O o O & & + & = & & & + & & + & & @ % O O O = + = = @ & + p *X*X*X*X*X*X*X*X*X*X*X*X*X",
"*X*X*X*X*X*X*X*X*X*X*X*XW i x x v g g s s 2 @ f I I I L I I I I I I I I I L I m & = u u g v x x g s f *X*X*X*X*X*X*X*X*X*X*X*X*X",
"*X*X*X*X*X*X*X*X*X*X*X*X*X*X*Xm O + @ O + g s i J m H m J G G G m G G G J G G g 1 v = O O + O p *X*X*X*X*X*X*X*X*X*X*X*X*X*X*X*X",
"*X*X*X*X*X*X*X*X*X*X*X*X*X*X*X*X_ 1 u = b Y s s v - G 2 s b = H 2 s m = A u d v 2 I G u 1 2 m %X*X*X*X*X*X*X*X*X*X*X*X*X*X*X*X*X",
"*X*X*X*X*X*X*X*X*X*X*X*X*X*X*X*X*X1 - J ~ I = f J 2 L a v G 1 U s g H 2 L s g J = G ~ I i + *X*X*X*X*X*X*X*X*X*X*X*X*X*X*X*X*X*X",
"*X*X*X*X*X*X*X*X*X*X*X*X_.*X*X*X*X2 H ~ I s = f A 2 I a v G 2 U s g G 2 L s g A + u H ~ I i *X*X*X*X*X*X*X*X*X*X*X*X*X*X*X*X*X*X",
"*X*X*X*X*X*X*X*X*X*X*X*XP *X*X*Xm I ~ Y s s s f G 2 I a v G 2 U s g J u L p g G 2 v u I ~ Y v _.*X*X' ' *X*X*X*X*X*X*X*X*X*X*X*X",
"*X*X*X*X*X*X*X*X*X*X*X*X= c P b I ~ Y f s L s f I a I u v G 1 ~ s g G - L f G G 2 H g i I ~ Y b J m 1 ' *X*X*X*X*X*X*X*X*X*X*X*X",
"*X*X*X*X*X*X*X*X*X*X*X*X= 1 c Y ~ ~ c a H I 2 = v J Y f A G 2 I s d L s Y I b u = L I z s U ~ Y b 2 1 r.*X*X*X*X*X*X*X*X*X*X*X*X",
"*X*X*X*X*X*X*X*X*X*X*X*XO v Y ~ ~ v u H Y H + 2 2 u b H ~ I i I f G ~ L m s = 2 O x Y I s s Y Y ~ P + ` *X*X*X*X*X*X*X*X*X*X*X*X",
"*X*X*X*X*X*X*X*X*X*X*X].(.P G ~ Z 2 H Y U 7 X 1 i 2 s s c G ~ ( ~ P x s f u 2 u O = I Y L s s ~ P G r.(.*X*X*X*X*X*X*X*X*X*X*X*X",
"*X*X*X*X*X*X*X*X*X*X*X*X*X*X'.v 2 G I ~ G & + 2 c 2 & 2 = + 2 s u = = 2 + 2 s s X & g Y Y L a i r.*X*X*X*X*X*X*X*X*X*X*X*X*X*X*X",
"*X*X*X*X*X*X*X*X*X*X*X*X*X*X*Xc G I v G u = & 1 x s 1 s 2 2 s = 5 a 2 s 2 a v a X = 1 G z I H s *X*X*X*X*X*X*X*X*X*X*X*X*X*X*X*X",
"*X*X*X*X*X*X*X*X*X*X*X*X*X*Xm z T Y i 2 = < & 1 s d s c s s s 7 s s s c s s d u & < = 2 2 I Y A a *X*X*X*X*X*X*X*X*X*X*X*X*X*X*X",
"*X*X*X*X*X*X*X*X*X*X*X*X*X*X*X` J H 2 O 3 3 & 1 s s a s a s s = 7 i s 7 a s s 2 & < 3 + = L G ! |.'.*X*X*X*X*X*X*X*X*X*X*X*X*X*X",
"*X*X*X*X*X*X*X*X*X*X*X*X*X*X*X*X*Xr.2 & 4 3 & 2 x 2 = = = a z = i z 1 & = 1 c a + < 5 - + Q  X*X*X*X*X*X*X*X*X*X*X*X*X*X*X*X*X*X",
"*X*X*X*X*X*X*X*X*X*X*X*X*X*X*X*X*X*X_ & 5 < & 2 s + 7 7.X = s = s 7   R F   a s X < 3 2 c *X*X*X*X*X*X*X*X*X*X*X*X*X*X*X*X*X*X*X",
"*X*X*X*X*X*X*X*X*X*X*X*X*X*X*X*X*X*X' & 5 < + 2 z . r 0.$ 1 z = s 1   +.X.  a i & < 3 < m *X*X*X*X*X*X*X*X*X*X*X*X*X*X*X*X*X*X*X",
"*X*X*X*X*X*X*X*X*X*X*X*X*X*X*X*X*X*X' & < 3 * 3 s + 0 1.& & z = p 7   ..o.. i s + < 3 < N *X*X*X*X*X*X*X*X*X*X*X*X*X*X*X*X*X*X*X",
"*X*X*X*X*X*X*X*X*X*X*X*X*X*X*X*X*X*X' * 5 < & 1 g f s V s z s = s z s x x s d a + < 5 3 m *X*X*X*X*X*X*X*X*X*X*X*X*X*X*X*X*X*X*X",
"*X*X*X*X*X*X*X*X*X*X*X*X*X*X*X*X*X*X' % 7 < $ 1 x s = = 7 s s = s x u 1 1 i v a & < 3 < n *X*X*X*X*X*X*X*X*X*X*X*X*X*X*X*X*X*X*X",
"*X*X*X*X*X*X*X*X*X*X*X*X*X*X*X*X*X*X' = 3 < = 3 g O % 0 o 1 x = s 2 O > : O s s % < 7 < m *X*X*X*X*X*X*X*X*X*X*X*X*X*X*X*X*X*X*X",
"*X*X*X*X*X*X*X*X*X*X*X*X*X*X*X*X*X*XW = < < O 2 z 2 d D 2 7 s = s s 2 k k 3 s a O = < = i *X*X*X*X*X*X*X*X*X*X*X*X*X*X*X*X*X*X*X",
"*X*X*X*X*X*X*X*X*X*X*X*X*X*X*X*X*X*X1 * < = & 2 x z v v v z z = s z v b b x v a X * < < & *X*X*X*X*X*X*X*X*X*X*X*X*X*X*X*X*X*X*X",
"*X*X*X*X*X*X*X*X*X*X*X*X*X*X*X*X*X*X* 3 $ * & = s < 7 z s < 5 = 7 * 7 s s < 7 2 O < $ < & ].#X'.*X*X*X*X*X*X*X*X*X*X*X*X*X*X*X*X",
"*X*X*X*X*X*X*X*X*X*X*X*X*X*X*X*XM }.= * + + % & 3 O * 3 < & = O = O * 3 < . 2 = + % X = % (.` r.*X*X*X*X*X*X*X*X*X*X*X*X*X*X*X*X",
"*X*X*X*X*X*X*X*X*X*X*X*X*X*X*X*X1 M c z f f f f x f s x x c f f c f v x c f x v f f s f c m 2 (.*X*X*X*X*X*X*X*X*X*X*X*X*X*X*X*X",
"*X*X*X*X*X*X*X*X*X*X*X*X*X*X*X*Xc G G G m G G G J G G J m G G G G G m G m G G m G G G J J G v *X*X*X*X*X*X*X*X*X*X*X*X*X*X*X*X*X",
"*X*X*X*X*X*X*X*X*X*X*X*X*X*X*X*X*Xp   O O X o O O O O O O + O O O O + O O O O O O o O O O + '.*X*X*X*X*X*X*X*X*X*X*X*X*X*X*X*X*X",
"*X*X*X*X*X*X*X*X*X*X*X*X*X*X*X*X*Xc * < < = O - s s a a a s s s a s a s a a s 2 O = * - < = *X*X*X*X*X*X*X*X*X*X*X*X*X*X*X*X*X*X",
"*X*X*X*X*X*X*X*X*X*X*X*X*X*X*X*X*Xi 3 5 < < + 7 x u & + * s v z x s 2 & @ 2 z a & * < 5 5 * *X*X*X*X*X*X*X*X*X*X*X*X*X*X*X*X*X*X",
"*X*X*X*X*X*X*X*X*X*X*X*X*X*X*X*X*X1 5 5 3 < + 1 g O < y X 1 x x x u o r e o i s . < < 5 3 + ].*X*X*X*X*X*X*X*X*X*X*X*X*X*X*X*X*X",
"*X*X*X*X*X*X*X*X*X*X*X*X*X*X*X*X*X= < 5 < < & 3 s + q 9.$ 1 z x z i O X...o i a X < < 7 7 * (.*X*X*X*X*X*X*X*X*X*X*X*X*X*X*X*X*X",
"*X*X*X*X*X*X*X*X*X*X*X*X*X*X*X*X*X& 7 7 < < + 2 s + 0 <.. * z x x 2 . *.] X i a X < < 5 3 * / *X*X*X*X*X*X*X*X*X*X*X*X*X*X*X*X*X",
"*X*X*X*X*X*X*X*X*X*X*X*X*X*X*X*X*X& 3 5 < < $ 1 g s d V s s x x x z i k d i f a O < < 5 < < M *X*X*X*X*X*X*X*X*X*X*X*X*X*X*X*X*X",
"*X*X*X*X*X*X*X*X*X*X*X*X*X*X*X*X` * 5 3 < < & 1 x s 2 1 i z x x x z u u 2 s x s & < < 5 5 < c *X*X*X*X*X*X*X*X*X*X*X*X*X*X*X*X*X",
"*X*X*X*X*X*X*X*X*X*X*X*X*X*X*X*Xm % 3 < < $ & = a O % > . = a a s 2   : ; o 2 2 . $ * < < < 3 *X*X*X*X*X*X*X*X*X*X*X*X*X*X*X*X*X",
"*X*X*X*X*X*X*X*X*X*X*X*X*X*X*XQ Q Q ~ Q U Q U Q ! E ~ e.P U ~ ! ~ Q P w.q.E Q Q Q Q Q Q Q ^ U W (.*X*X*X*X*X*X*X*X*X*X*X*X*X*X*X",
"*X*X*X*X*X*X*X*X*X*X*X*X*X*X*X*X*X*X*X*X*X*X*X*X*X*X*X*X*X*X*X*X*X*X*X*X*X*X*X*X*X*X*X*X*X*X*X*X*X*X*X*X*X*X*X*X*X*X*X*X*X*X*X*X",
"*X*X*X*X*X*X*X*X*X*X*X*X*X*X*X*X*X*X*X*X*X*X*X*X*X*X*X*X*X*X*X*X*X*X*X*X*X*X*X*X*X*X*X*X*X*X*X*X*X*X*X*X*X*X*X*X*X*X*X*X*X*X*X*X",
"*X*X*X*X*X*X*X*X*X*X*X*X*X*X*X*X*X*X*X*X*X*X*X*X*X*X*X*X*X*X*X*X*X*X*X*X*X*X*X*X*X*X*X*X*X*X*X*X*X*X*X*X*X*X*X*X*X*X*X*X*X*X*X*X",
"*X*X*X*X*X*X*X*X*X*X*X*X*X*X*X*X*X*X*X*X*X*X*X*X*X*X*X*X*X*X*X*X*X*X*X*X*X*X*X*X*X*X*X*X*X*X*X*X*X*X*X*X*X*X*X*X*X*X*X*X*X*X*X*X"
};
