/* XPM */
static char *_80ebcadd7714710ac639636a1b58723[] = {
/* columns rows colors chars-per-pixel */
"64 64 27 1 ",
"  c #010101",
". c #080707",
"X c #070806",
"o c #080807",
"O c #060708",
"+ c #080708",
"@ c #070809",
"# c #0B0B0B",
"$ c #110D0E",
"% c #0E100E",
"& c #12120E",
"* c #0E0E11",
"= c #120E11",
"- c #0E1111",
"; c #131313",
": c #1B1617",
"> c #171916",
", c #191B12",
"< c #171619",
"1 c #151919",
"2 c #1B1B1B",
"3 c #1E211F",
"4 c #1E1E20",
"5 c #241F24",
"6 c #1E2422",
"7 c #232323",
"8 c #2A2A2A",
/* pixels */
"X     # # ##     X    >; ; ;     X  ;  2   #> #  #   #  O  ;X   ",
"X  =#  X                  #X XX     # X##X  +;   XX# X  .>  #   ",
"  ##X X  #     # o2    >   X#        *      Xo#             >###",
"  -O #   #   1  # X     X#   X   #      #        X    ## X  ;7#X",
"#    X.   >          X  X ## ;X  # X#=;   2  X       XX  ##  O  ",
"    XX;       ;  o X    ;      ;            #    =   ##   ;  #  ",
" #X  >X X       #;<  # X  # X# O #   XX X < X      ##   X       ",
"        X           X        #   X X   X    2       #       #X  ",
"  X # #2   o           X  X            XOX;+#X#     ; ;*.X #    ",
"        #  #   X X#   X X #   X;#      X#  > X   7>  O+ X+  > # ",
"   1#> >X   #    ;    >      ##   >                #X    #     #",
"  #    #X X   X     X        &X#    ;  X X       : X  #  #   ># ",
"      #   # # #X  ; #  #  X <   ##  X #   X +#7 X.  X   +    *X ",
";5   X#          # o##   XO; #    X 7#  X#     #   X#X;     >*  ",
"  X  #O>%        # O    ;X#       #  #       *  # XX     # X 7#=",
"  # >    #  # X# #  #  ;      - O X#  > #  +                 #  ",
"#X         X @#2X>  2   #  X=  X #;    #X X       @  ;#  X >   X",
" X;     #  oX       ### .; > O       -          >= X X   =$ X #X",
" #  +X## #   X8  X=       *    X     #  ;    >X#;   #           ",
"  >   @  # X   @      ;#  XX>X          X   #X#>  #; ;     ;  ; ",
"   X> #   =      XX #X  ;>       ## #  X    X X  X=  #      ;   ",
";@  X    X #    X      ;      X # #  # o; 7       X  ;#X#       ",
" $>X#    X X #     X         # X # # o <X#X #       <#    .     ",
"#  # ;  #  #       # X #+;X  # ; ## #      # X          X  #   #",
"  X;7     X    # X        #  #   #  #;   *>  &        ;; XXX+   ",
"  # #+ X     X       X #      #   # X  X  7  <  # @ ##  #   # >>",
" ;         X#X#  #           #      #           #;#       X    >",
"    >  X ## # X            >#   ;    X #      X    X   X    +###",
"    #<X  ;;#O  #X2   3   #  2 X     X#X   &  *X   X; >  $o-     ",
" =#   X X     #  +    #; ;. .  X#>   ; X   X##   X    2   #  X #",
"   #    +#   X  #   # ;   > ##       #    #      X     ##  ;X # ",
"  >   #      >;          X    X #;     ## X  >;#   7          ; ",
"          X          6   =    #  #        #  X  X X+;    XX X   ",
"XX > X      #7          > ; & +X   XX   X   ;# # #   # ###;     ",
"      #X;X  #    #    7<##    o#X   #  X   >    #  #X  #    #.##",
"  ##        ;   7;    o;   #X  X X    O-XX     X XX    O      + ",
"     #X ##  ;;+ X #           X < +X           $  ;X   X#    X  ",
" X   #  # ## #        #        #X   #  X  ;    X>    #     XXX  ",
"  >#=>      >X #      + X## 2 #  X#  #  X    #      % #X   ; #  ",
"   .  >   X #     X  ##  o#;  X        X    X  7   # X   X  X   ",
"##  X   +   # #X###X#      # O  ;   X#    # >  X *X * # X #   > ",
"X ##      X  8    >     #X  X     X -    #   X      .&  X$ .  X ",
" X  X#  OX X#    X   X 7##  X    X   X          ;O      X O ##  ",
"   XX   8   >   #   = O #X ;   #     ;   ;        X## X    #    ",
"   ; XOX   X ;           #   3    #    X#X        X      #   #  ",
"        X        ##  # #       #X      #     ##XX       X ;>    ",
"     2    #        X X >    XXX #  O    ##  X#    # # #   X   X ",
"#  X   ##         X   ##    #     X+##       X   X3             ",
"2     O   o ;;     *  <      X<  *#; #     #  ;#  ; X        ;#X",
"      #   # &  X  XX; #      +O XX#     >  X  X > 2#   # X  ##$X",
" : #    ;    X##  ## X  X X 2 X   >    2.X          +    ##     ",
"    X  = >X+        + # X+  ##    #     #= X   ;>+ 8    #= o  # ",
" #  X>#7 #O           #      X   X X  # # #X    7   #    #  X   ",
"XXX  X   #  >> X          @;  X#        #      X    8 ># #      ",
"   . XX#       X;>X       X  ;   #  ;  X#   =*X+    ; ##      ; ",
" X X  X     X>   ;       X  #    # #X # X   X     X#& X     X  X",
" # X #  X  #  -#  #   #   # X     7#         X+>X  #    # X= +  ",
"   #   X #    #   # #   # ; $X#  7  #O X  X # X+   X 2    ### X ",
" 8  #X*  2#     XX  >#X ,  #   XX          #;  X >X#    #  #    ",
" >  X >  #       #   #    : X  X. #       #      # #    #>X  +#>",
"##   X   >  #X      #X           #4 X       ; >%X     ;     #O  ",
"X  2                +     7#   X  *    X#    X      #  o   +.X  ",
"  X    X #=#  ;X ;;    X         #               2      X    X; ",
"#   X   +      X>#  #X ; #;; # 7    #;   X  X   o  ##  X  # # ; "
};
