/* XPM */
static char *_599611638443[] = {
/* columns rows colors chars-per-pixel */
"64 64 106 2 ",
"   c #050300",
".  c #0A0700",
"X  c #0D0B02",
"o  c #0F0E09",
"O  c #110E05",
"+  c #110E09",
"@  c #131106",
"#  c #15130B",
"$  c #19160D",
"%  c #1B190E",
"&  c #1A1711",
"*  c #1D1B13",
"=  c #211E15",
"-  c #221F19",
";  c #232116",
":  c #25231B",
">  c #29261D",
",  c #2B291E",
"<  c #272520",
"1  c #292620",
"2  c #2D2B23",
"3  c #2F2E29",
"4  c #312E24",
"5  c #322E2A",
"6  c #333126",
"7  c #35332A",
"8  c #39362D",
"9  c #3B392E",
"0  c #363531",
"q  c #3A3731",
"w  c #3D3B32",
"e  c #413E35",
"r  c #423F39",
"t  c #3F4032",
"y  c #434136",
"u  c #45433A",
"i  c #49463D",
"p  c #4B493E",
"a  c #4A4740",
"s  c #4D4C42",
"d  c #4E4D48",
"f  c #514E44",
"g  c #504F4A",
"h  c #535145",
"j  c #585647",
"k  c #55534A",
"l  c #59564B",
"z  c #5B5A4E",
"x  c #575651",
"c  c #595651",
"v  c #5D5B52",
"b  c #615E53",
"n  c #615E58",
"m  c #636155",
"M  c #696856",
"N  c #656459",
"B  c #69665B",
"V  c #67685A",
"C  c #6C6A5D",
"Z  c #706E5E",
"A  c #72715F",
"S  c #6A6760",
"D  c #6E6C61",
"F  c #716F63",
"G  c #706D68",
"H  c #6F7062",
"J  c #747265",
"K  c #787667",
"L  c #777866",
"P  c #797866",
"I  c #767469",
"U  c #79776A",
"Y  c #77786A",
"T  c #7C7A6C",
"R  c #7E7C71",
"E  c #807E6F",
"W  c #817F72",
"Q  c #827F78",
"!  c #81816E",
"~  c #848274",
"^  c #888677",
"/  c #898976",
"(  c #868479",
")  c #898779",
"_  c #87887A",
"`  c #8C8A7C",
"'  c #908E7F",
"]  c #91917F",
"[  c #8E8C81",
"{  c #918F81",
"}  c #8F9082",
"|  c #949284",
" . c #989687",
".. c #9A9987",
"X. c #969489",
"o. c #999789",
"O. c #9B9A8C",
"+. c #9E9C91",
"@. c #A19E91",
"#. c #A3A194",
"$. c #A5A499",
"%. c #A9A79A",
"&. c #ABAA9C",
"*. c #AEABA2",
"=. c #B1AFA3",
"-. c #B4B2A5",
/* pixels */
"m W ~ W E P ~ ) ~ | ' U g = + 5 n n W o. .@.] h % e z E E E E E ` ' E ' W E E Q _ #._ H < X 3 s V ! _ _ ` ` ' | | / ) J f $ : f ",
"s D ( ' E I ) ) o.` F r = > 1 + = 1 f B E  .Q e % r l C E E E E W E E ` ] W E ' ] +.! t % , t z ] _ / / / '  . .] ] { ` W h * 4 ",
"i z J {  .W W ) Q B 4 O 7 n n c 4 = $ * 1 l B e $ f j B W E W E E E E W Q E E E _ ! V : o t t Y | ~ _ / E ~ ' ` ] '  . .o. .e @ ",
"7 f U { ` ) ` ) n - = h I E [ O.Q v e 1 $ * e > $ e f C W ` ' E E E E W W Q ' W V V x > * s s Y ` _ _ ] ) / ' | ..' | ' ' =.U % ",
": u F T I ` W h = 4 B | { ` ' W | { [ Q f > * O = > f M E Q W E ` Q E Q ' E E m x m t # # p n F ~ ` ~ ~ | | ' O.{ ) { | { %.O.8 ",
"* 9 h C ' I 7 > 4 G | ` {  ./ E Q |  .o.[ E j e = O e r b E ' ] ] Q E ' ' E m l b x * & = 8 n B / ] T J ` ] ~ { ` ) ( ) o.' | b ",
"# 5 k U U 8 $ f ' E ) ..' E / ` ' ' W Q X.+. .Q r = : e e b E ] ' E E Q E r j f w 3 # k i ; r j ! ` ^ T ] ] ~ / ) T F W ( ~ ' U ",
"5 & l I 9 > j { K | ] ^ ' ' ~ W Q Q W E Q E ` @.+.l = = e e z E ' E E m e e , % o . o v u O 4 r z L / ' ` ] ' ` ( B F W F { o.W ",
"r # r e ; p E Q E W / ) ) ) ) ^ ' ] E E E E E Q @.G c q . 4 r v E k e $ O O = 4 p f e e e + . > r p F E ~ E ` ^ B m B Z F W F n ",
"# # = , f W ` E Q W E E E E Q ' E / W E E E M E O.W F U 8 = = , * # + & ; e f b B B B B B j e $ = 4 l b F E Q B m M M b l p 4 % ",
"e > . r M E E E Z E W ^ ^ / ^ E W ` ' ' E E E E | G F Q Q = @ % e e r j M E E Q E E Q ' E E M j > $ = e b B I n B B h 8 = O & > ",
"Q I 4 4 f B Q Z K E / / / E E E E W ' ] E E E E | ' G Q r = , b E E W ' ] Q ' ] ] E Q  .Q W E E n i - $ > p B n b r % @ 1 a S R ",
"Q O.p % l E E E E E W ] ' E E ` W Q ' ' ^ ^ W E Q  .[ S @ 4 M / E Q ] ] ' ' ] ] ' W W ] ] @.] W n n j 7 = > 7 s r 2 - q n T Q R ",
"Q o.m ; r b B E E ' ] Q E / ^ E / ' / W ^ / / E E o.W = 6 v Q Q ' ` ' ' ' Q / Q ] ] ' ' ' W W @.&.Q n l b e . = & = i F ` { Q Q ",
"o.+.B = # e M Z E ] O.E A ` / E Q / E E E ` Q E ` O.e + e M E ` ' ' ` ' ' ] ' ] ] ' W Q ' E E ' O.+. .B b n q E i q F { { o.W E ",
"Q E 4 : > # = r p M W ' ' ] ] Q ' ] W E / ' Q Q | l . e b K / E ' ` Q / ` Q ` Q ' ] ' E E E E E ` ' O.E C f = { u e W  .Q ~ E { ",
"l 2 : r E r # # 4 j f B W ' ' / / ` E E Q E J | G = > p E W Q ^ ' ' W ` ' / / ^ ^ ' E P ~ Q W Q ] { Q n r $ $ @ @ 8 A P E E W E ",
"1 > z Q +.o.E 1 # 1 e h B C C C E Q E `  .' ) J , > i A ) E E E W  .] ' ' ' | ) E W ~ W ^ ` { { ^ E W r O > e i , > , 6 e i i > ",
"r l | O.W Q +.Q e $ = 1 , , 6 e y z b A E E Q h = i l E ) W W W E ] O.] | Q ' E E E ) ` ) ' { ` ) E h - = k z ^ b 6 X e p % % 4 ",
"B E Q W E F { &.G = = 5 4 4 - * @ = ; e e a a = 2 l D ' [ ` Q Q Q W  .]  .A E E ` ' ' ` { ) E E Q b = , l C K ] O.v e e / , 4 p ",
"E ` E E E Z E Q Q - 4 b n C n l c d e & X # & - e p E  .) ` E ) ^ A E ]  .A /  .' ..| ' | ` I U J 4 = p A J ' ` O.o.h 4 O 4 y Z ",
"W | Q ' E N E E [ , 1 l n ) { | +.+.+.{ Q n 5 $ p e M W Q ) E ^ E E W / ` W O.O.E |  . .+.` E Q f $ e v E ' ' ' ( ~ #.b = @ j E ",
"E E E +.Q E Q E ' e = j v ` / ) Q Q ) +.*.@.n $ e e b E  .' W E E E / Q W / O.| E E ' O. .` W F - 4 f b ` ..E ^ W n E ) l @ e M ",
"F Q E Q E F E E | p % p b O.' ^ E Q Q [ ( { ` e O i b G | W Q W E E E ' E Q  .' / Z W O.' ) E f # r C {  ...] W F I I o.W , , l ",
"E B Q @.F B ' E | z # 8 C X.) Q E Q E E W Q { I = : f b W E E Q E Q / E W ` ' ` E M W +.^ E Z , : j E { o.O.{ ~ E I U { @.f : j ",
"E Q ' ' ` U U Q ` I = 4 C ) W Q E F E Q Q E ` X.5 & f l B S E Q W / ^ Q ' ` W E C U Q E F F z % 8 n U ) o.' E U m E W E #.n % l ",
"E ..' Q O.~ C U X.Q = - b E Q Q Q Q ` +.Q J W | n O e r f l n E E E E W ' Q E E ` E b M E U f $ f J U F E E J ^ ` ` ! Z @.G - p ",
"b E ` Q ` / T J [ B > 4 i C Q G Q )  .' E E Q | F $ = e f l b h E E E E E M M E E B l n n i - $ > n E I J I W ] &.A A E W e + e ",
"j E ) W E E U B a 4 % $ $ 4 r s m Z E E J E Z j 4 = X X - e l h z F E E m m m B B z i 8 % $ % $ - y F E F J )  .' U E B 4 O = % ",
", e F n n s 6 ; X + $ $ > - . = > , r f r e > @ - e e 4 $ . = 7 p f f k h p h j e 4 $ $ = i M z = O = p N F Q ) Z F j > > u l = ",
"% = 7 e 5 - + & , e l M E F r 4 # X = = O O ; r b E W Q n 7 $ O + $ 1 r r e ; % O @ , p M W @.#./ h : % = 2 r g f 4 = 4 M E Q M ",
"j $ + $ + : d I ' | ]  .| @.&.[ n 1 + - e c m E ' ' | ` | O.F r > + O # $ # & , f M F E ` ' ......#. .C e = # & = 4 B U W ~ ' ' ",
"O.4 @ % e z ^  . .) ^ W K Q O.o. ., - C F ) | / .. .' ^ ^ ..@. .E k $ O = $ l M E ] ' ' ] ] ] W ' ` ..-. .W f > O f Q Q ' ' Q ] ",
"B 4 = e z E E ] / E E W Q Q X.@.E = e C K E ' ' ' ' | ' ` | .. .o.| z ; . e n b E ' Q ` ` ` ' E E ' ' %.o.E E r $ 4 Z Q Q W E E ",
"i , $ p Z / ^ E E E E E Q ) | o.h # f b C F )  .` ^ ` ` ~ / '  .| o.E r . r b B W ] ' ] ' ` ` ` Q ' Q O.#.E ' m = 4 C Q E E Q E ",
"$ O - l Z ' ^ E E Q ^ Q E Q X.{ - = b n B C ` | ' ^ ^ E E W ' ' Q ' ' n $ e a M Q  .....' E E ' ] ' Q ] @.C Q m > e B W E E f , ",
"r O , l C ) E E ^ E Q ` E Q O.K . 7 n J B E ' ` | ' ` E U / ' ) E X.@.F > > f n ' ] ..] / E E / ..] Q ' @.E E B 1 = e r e > % , ",
"| 4 % p F ' Q Q E ~ / ~ E +.{ e # f n J B W | '  .| ] W E ) ' W E { | S e + k C E Q ' Q W E E / ' ] ' Q ' @.W E e * $ $ @ : r E ",
"Q f = p C ) | O./ | ' ) ' +.J % , b Z E Z ) | O.] ' ' ) / ' ] ~ Q ' { W r . e b Z Z E E E E E E ' ] ' E ' O.Q C k = O , r E E E ",
"{ Q @ e j E ` ` ' ) E ' o.E e # e B Q Q ) O.' ..| ' ` ` / ' ' ' ` Q o.Q b @ e z Z Z E E E W E Q W W E E | Q E E f + e Z Q | O.Q ",
"'  .w & x G R E Q Q | { E a # $ r Z Q / ] ' ' ' ` ` / ' ' ` ' ' o.'  .+.B , $ z M J B C Z E E E E ' ' Q Q | W N 1 , f E Q Q o.Q ",
"{ ' S o 3 d H H W E z l r - $ 1 e C ' E / ^ ^ Q ~ ` { ' ~ T E '  .| +.&.E e $ a b S N F E W W ` ] ] ' Q Q W E 4 + k E D W W Q ' ",
"U [ G # * o * 6 > , = - > - % - r b ) E E Q E / ! / ` ` ~ E E ~ W W ' O.' e $ e f N B E E W ' ' @...| W | E r O r C E E E E E ' ",
"W X.r . : 3 9 9 e e j h v F e - p z W Z E ' ` / ~ ~ / ~ ~ E E ~ E E Q Q ' r = e f E W W Q '  .' | ..' W Q b O 1 l E W W m E E B ",
"~ d o 2 d x H L E W Q E J Q f + r h E Z E ^ E W T ! ^ ~ T Y ! _ E E Q ` ' j = > p E ) +.| ) ` ` ] o.Q ' E 4 X f E Q E E F E m C ",
"t # , z Q C V _ `  .W W W Q E + e r Z E E E E E T T T ! ! ~ _ _ E W | '  .b = $ e z E @.O.Q E ` O.| ` ` k . e k J Q [ E b S E E ",
"o t z z ! _ _ ] W ` E / Q W { = % e n Q E W E E ~ ~ E ! / ] ] ~ ^ ] ..` E b > $ e j Z Q ' Q ` ` ' ` Q Z 1 = c b F E J b B W N & ",
"d d t z z L } ! Q A E ^ Q Q +.e # 4 p W E ' Q E _ ` } _ ~ ! ! Y ' ] E b r r $ X 4 p f j z A E E E E Q r X f n S C J E E F : . 1 ",
"j j m j z J ~ / T W ( / ) I @.k X 2 r n Q ' { W W / ~ / _ _ } _ F v l e * o o * o # < t h x n j k J c $ , f B n c f e 2 . - r v ",
"V V ! / K F E | I ) / ` ' I @.D & < r f f j j v v Z P ' _ ~ _ L g 7 * # : i v V V t : o 3 2 3 t 4 5 > # = > ; $ $ O & O - f n E ",
"! T ! _ / E ~ | E ` | / W W | Q = = e i f l f l h h h l x x g t O % 8 b J m D R Y H s % t > * o 1 # . $ $ O $ 4 e e 4 O $ l J W ",
" .] ! _ ] ..' ~ )  .' ~ U ) o.I = + # = - 4 1 , 2 2 2 2 3 3 < # 4 m J N z v Y _ } V z p % 3 #.0 a : O 5 r z b Z E Q J e . e C ) ",
"} ..~ ' | ] ~ T ` O.P / ~ ' o.r # > 2 - = O @ O   . X   X o o o z U F b V J R J Q } H n g 2 i - # , p J E E E E E [ [ E = - j G ",
"_ } T ` / ~ E ~ O.W W / | +.n % 7 B E [ W J E B n v a t t 3 % 2 K Z m F ! ! Y R Y X.H x N q   & h b m Z E  .O.] ) E Q Q b = e b ",
"~ ..Y / / ` / '  .J ' / ' K ; = h C E Q Q ' ' ` $.O.} } _ s # 7 P E / U Y _ } } _ } _ n c d $ 2 j F W Q Q Q ` ' | Q E E E , e b ",
"V ..^ ' ~ ` ) ~ E Q K ' ' , $ e n M E J Z E E W ! _ _ } Q 3 o v / W { / ! }  .+.Y } } Y n a * : h B W Q o.W E Q ~  .) E Q e $ p ",
"M / ! T ! T ~ R U ~ ~ Y 7 X ; p C ) E F ^ E ` ` ^ ' Q @.n X 8 Z W E E J P ^ ' ` E K E { Z b - $ i C ( ) / ~ L Y  .~ ~ L ~ z * 0 ",
"h V v v m m H I Z E V > 4 t # b J O.[ Q F E ) ` ' Q @.Q , % v E W E F Z E / / ' E  .F / [ b 7 = y B ~ W ^ / ' | ) ' Y C ] C & : ",
"; : * - ; - - & 7 w 2 * H } * t C ' ' Q F ) { ^ `  .{ r O e E ' ..| ~ ~ |  .' O.W J U ) ( G k # > l I R ~ / } |  .{ U H ! t   & ",
"w w h k d d t 9 = $ . ; V R 0 : f K ` K W ) { Q '  .f O 4 n ) @.O.O. .' ' ' | | F E ~ U U U k 2 $ 9 h v B D Y _ ` K D m t # # 3 ",
"G ~  .| ! ! Y ! R Y d 3 o < - X i E ` P W E ) { [ l = = j E ' '  .' ' ' W '  .E U  .) ) N b N 4   + $ % > 2 t j x t 3 * X : g H ",
"T ~ T Z H L J H Y Q } } H g - o v { W E E ) [ ' n $ * e C ) E E / W E E E |  .K  .' o.{ n N f @ 2 7 4 2 > @   X X X X & t v x H ",
"T ~ Z J _ _ _ ! } W } } _ V * t C { E Q Q | @.E 1 = e l E E C E E E E A E E Q E {  .@.Z J l + = 9 k m C Y H v z t 6 * o t x g L ",
"D ( U / } R R R Y _ X._ H t o t b W ) ' ) ) &.z + 7 f E E E Q E E ] E E E E E / ' o.O.M l - + e l F U F ! } } } _ H V < X 3 t l "
};
